<?xml version="1.0" encoding="iso-8859-1"?>
<!-- Generator: Adobe Illustrator 19.0.0, SVG Export Plug-In . SVG Version: 6.00 Build 0)  -->
<svg version="1.1" id="Capa_1" xmlns="http://www.w3.org/2000/svg" xmlns:xlink="http://www.w3.org/1999/xlink" x="0px" y="0px"
	 viewBox="0 0 512 512" style="enable-background:new 0 0 512 512;" xml:space="preserve">
<path style="fill:#E1E4FB;" d="M467,0H45C20.098,0,0,20.099,0,45v422c0,24.899,20.098,45,45,45h422c24.902,0,45-20.101,45-45V45
	C512,20.099,491.902,0,467,0z"/>
<path style="fill:#C5C9F7;" d="M512,45v422c0,24.899-20.098,45-45,45H257V0h210C491.902,0,512,20.099,512,45z"/>
<path style="fill:#17ACE8;" d="M437,60H75c-8.401,0-15,6.599-15,15v240c0,13.2,16.201,20.099,25.499,10.499l81.501-79.2L257,336
	l19.501,19.499c5.702,6,15.297,6,20.999,0l49.501-49.2l79.501,79.2C435.799,395.099,452,388.5,452,375V75
	C452,66.599,445.401,60,437,60z"/>
<path style="fill:#1689FC;" d="M452,75v300c0,13.5-16.201,20.099-25.499,10.499L347,306.299l-49.501,49.2
	c-5.702,6-15.297,6-20.999,0L257,336V60h180C445.401,60,452,66.599,452,75z"/>
<path style="fill:#08469C;" d="M452,437c0,8.291-6.709,15-15,15h-60c-3.984,0-7.793-1.582-10.605-4.395l-90-92
	c-5.859-5.859-5.859-15.352,0-21.211l60-60c5.859-5.859,15.352-5.859,21.211,0L452,368.789V437z"/>
<path style="fill:#E1E4FB;" d="M302,120c-17.999,0-34.2,8.099-45,20.7c-9.602,10.499-15,24.3-15,39.3s5.398,28.799,15,39.3
	c10.8,12.599,27.001,20.7,45,20.7c32.999,0,60-27.001,60-60C362,146.999,334.999,120,302,120z"/>
<path style="fill:#C5C9F7;" d="M302,240c-17.999,0-34.2-8.101-45-20.7v-78.6c10.8-12.601,27.001-20.7,45-20.7
	c32.999,0,60,26.999,60,60C362,212.999,334.999,240,302,240z"/>
<path style="fill:#0D70B2;" d="M257,294l-79.501-79.501c-5.702-5.999-15.297-5.999-20.999,0l-96.5,94.2V437c0,8.399,6.599,15,15,15
	h338.299L257,294z"/>
<polygon style="fill:#0059AA;" points="257,294 413.299,452 257,452 "/>
<g>
</g>
<g>
</g>
<g>
</g>
<g>
</g>
<g>
</g>
<g>
</g>
<g>
</g>
<g>
</g>
<g>
</g>
<g>
</g>
<g>
</g>
<g>
</g>
<g>
</g>
<g>
</g>
<g>
</g>
</svg>
