<svg id="Layer_1_1_" enable-background="new 0 0 64 64" height="512" viewBox="0 0 64 64" width="512" xmlns="http://www.w3.org/2000/svg"><path d="m50 52h-48v-50h38l10 10z" fill="#50b6cf"/><path d="m50 12h-10v-10z" fill="#3cadc9"/><path d="m39 36h11v16h-11z" fill="#3cadc9"/><path d="m41 38h21v24h-21z" fill="#e34e4b"/><path d="m62 62h-21v-5l21-10z" fill="#de4542"/><path d="m45 42h13v4h-13z" fill="#f5a947"/><path d="m16 18 6.36396 6.36396c-3.51472 3.51472-9.2132 3.51472-12.72792 0s-3.51472-9.2132 0-12.72792 9.2132-3.51472 12.72792 0z" fill="#f5a947"/><path d="m29.36396 11.63604c3.51472 3.51472 3.51472 9.2132 0 12.72792l-6.36396-6.36396z" fill="#f5a947"/><path d="m22 41h4v6h-4z" fill="#f5a947"/><path d="m26 35h4v12h-4z" fill="#f09d3a"/><path d="m30 38h4v9h-4z" fill="#f5a947"/><g fill="#223b5a"><path d="m45 49h3v2h-3z"/><path d="m50 49h3v2h-3z"/><path d="m55 49h3v2h-3z"/><path d="m45 53h3v2h-3z"/><path d="m50 53h3v2h-3z"/><path d="m55 53h3v2h-3z"/><path d="m45 57h3v2h-3z"/><path d="m50 57h3v2h-3z"/><path d="m55 57h3v2h-3z"/><path d="m13 46h-2c-1.6543 0-3-1.3457-3-3h2c0 .55127.44873 1 1 1h2c.55127 0 1-.44873 1-1v-1c0-.55127-.44873-1-1-1h-2c-1.6543 0-3-1.3457-3-3v-1c0-1.6543 1.3457-3 3-3h2c1.6543 0 3 1.3457 3 3h-2c0-.55127-.44873-1-1-1h-2c-.55127 0-1 .44873-1 1v1c0 .55127.44873 1 1 1h2c1.6543 0 3 1.3457 3 3v1c0 1.6543-1.3457 3-3 3z"/><path d="m11 32h2v3h-2z"/><path d="m11 45h2v3h-2z"/><path d="m19 46h18v2h-18z"/><path d="m36 19h10v2h-10z"/><path d="m36 23h10v2h-10z"/><path d="m36 27h10v2h-10z"/><path d="m36 31h2v2h-2z"/><path d="m40 31h2v2h-2z"/><path d="m44 31h2v2h-2z"/></g></svg>