<svg height="512" viewBox="0 0 512 512" width="512" xmlns="http://www.w3.org/2000/svg"><g id="flat"><path d="m296 344 126.786 73.4a60 60 0 0 1 29.334 43.44l3.88 27.16h-400l3.88-27.158a60 60 0 0 1 29.334-43.442l126.786-73.4" fill="#ffb3b3"/><path d="m317.324 446.216 26.676 17.784-16 24h-24v-25z" fill="#faa6b2"/><path d="m216 344h-32.8a45.6 45.6 0 0 1 -27.358-9.119 45.6 45.6 0 0 1 -18.129-39.623l11.56-167.11a86.09 86.09 0 0 1 25.01-54.934 86.081 86.081 0 0 1 61.864-25.214q15.426.177 30.85 0a57.887 57.887 0 0 1 52.5 32 61.072 61.072 0 0 1 35.313 30.627l.208.416a61.067 61.067 0 0 1 5.862 18.875l17.894 128.266a60.762 60.762 0 0 1 -26.474 58.95l-.551.367a62.125 62.125 0 0 1 -34.538 10.499c-10.385 0-21.211 0-21.211 0z" fill="#683b0d"/><path d="m215.496 312v32l-8 24v120h96v-120l-8-24v-32z" fill="#fdc9a6"/><path d="m295.5 312v18.33a64.788 64.788 0 0 1 -39.73 13.67h-1.16a62.568 62.568 0 0 1 -39.11-13.65v-18.35z" fill="#fdc9a6"/><path d="m295.5 312v18.33a64.788 64.788 0 0 1 -39.73 13.67h-1.16a62.568 62.568 0 0 1 -39.11-13.65v-18.35z" fill="#e6af89"/><path d="m96 488v-32a8 8 0 0 1 16 0v32z" fill="#faa6b2"/><path d="m400 488v-32a8 8 0 0 1 16 0v32z" fill="#faa6b2"/><path d="m175.5 176h-11.06a20.944 20.944 0 0 0 -20.94 20.944v14.112a20.944 20.944 0 0 0 2.211 9.366 20.944 20.944 0 0 0 18.729 11.578h15.06z" fill="#fdc9a6"/><path d="m335.5 176h11.055a20.944 20.944 0 0 1 20.945 20.944v14.112a20.944 20.944 0 0 1 -2.211 9.366 20.944 20.944 0 0 1 -18.738 11.578h-15.051z" fill="#fdc9a6"/><path d="m272.412 408.091a8 8 0 0 1 -7.149-11.579l8-16a8 8 0 1 1 14.31 7.155l-8 16a8 8 0 0 1 -7.161 4.424z" fill="#e6af89"/><path d="m240.006 408.091a8 8 0 0 1 -7.161-4.424l-8-16a8 8 0 1 1 14.31-7.155l8 16a8 8 0 0 1 -7.149 11.579z" fill="#e6af89"/><path d="m194.007 446.662-26.007 17.338 16 24h24v-25z" fill="#faa6b2"/><path d="m215.493 320-40.793 45.888a42 42 0 0 0 -1.762 53.689l34.555 44.423v-96l8-24z" fill="#faa6b2"/><path d="m295.493 320 40.789 45.888a42 42 0 0 1 1.762 53.689l-34.551 44.423v-96l-8-24z" fill="#faa6b2"/><path d="m303.5 424a107.333 107.333 0 0 1 -96 0l.5 64h96z" fill="#eaeae8"/><path d="m255.775 328.053h-1.169a62.637 62.637 0 0 1 -55.967-34.343l-.514-1.016a209.284 209.284 0 0 1 -22.636-94.682c.011-19.825.011-38.012.011-38.012a156.307 156.307 0 0 0 75.911-19.671l36.589-20.329 47.5 56v23.218a209.02 209.02 0 0 1 -21.6 92.524l-.094.189a64.814 64.814 0 0 1 -58.031 36.122z" fill="#fdc9a6"/><g fill="#683b0d"><path d="m303.5 184h-24a8 8 0 0 1 0-16h24a8 8 0 0 1 0 16z"/><circle cx="289.496" cy="202" r="11"/><path d="m231.5 184h-24a8 8 0 1 1 0-16h24a8 8 0 0 1 0 16z"/><circle cx="221.496" cy="202" r="11"/></g><path d="m255.5 283.86a42.841 42.841 0 0 1 -18.684-4.268l-.813-.394a8 8 0 1 1 6.982-14.4l.812.393a26.976 26.976 0 0 0 24.027-.3 8 8 0 0 1 7.34 14.216 42.884 42.884 0 0 1 -19.664 4.753z" fill="#e6af89"/><path d="m264 248h-16a8 8 0 0 1 -8-8v-16a8 8 0 0 1 16 0v8h8a8 8 0 0 1 0 16z" fill="#e6af89"/></g></svg>