<svg id="Layer_1_1_" enable-background="new 0 0 64 64" height="512" viewBox="0 0 64 64" width="512" xmlns="http://www.w3.org/2000/svg"><path d="m30.2 61h-20c-4.348 0-7.579-4.027-6.635-8.272.108-.484.162-.979.162-1.475l1.473-14.253c0-8.284 6.716-15 15-15 8.284 0 15 6.716 15 15l1.473 14.254c0 .496.054.99.162 1.475.944 4.244-2.286 8.271-6.635 8.271z" fill="#57a5ff"/><path d="m7.2 7.828v1.172c0 7.18 5.82 13 13 13 7.18 0 13-5.82 13-13v-1.172c0-1.782-2.154-2.674-3.414-1.414l-2.059 2.059c-.824.824-2.175.772-2.933-.113l-3.076-3.589c-.798-.931-2.239-.931-3.037 0l-3.075 3.589c-.758.885-2.109.936-2.933.113l-2.059-2.059c-1.26-1.26-3.414-.367-3.414 1.414z" fill="#57a5ff"/><path d="m36.835 52.728c-.108-.484-.162-.979-.162-1.474l-1.473-14.254c0-5.951-3.475-11.078-8.498-13.502 2.656 2.706 4.298 6.411 4.298 10.502l1.473 14.254c0 .496.054.99.162 1.474.944 4.245-2.287 8.272-6.635 8.272h-20c-.536 0-1.055-.062-1.551-.178 1.191 1.888 3.291 3.178 5.751 3.178h20c4.349 0 7.579-4.027 6.635-8.272z" fill="#4481c7"/><path d="m56 19h6v35h-6z" fill="#2e872b"/><path d="m47 9h6v45h-6z" fill="#3449a3"/><path d="m38 31h6v23h-6z" fill="#d64528"/><circle cx="20" cy="43" fill="#ffd45a" r="11"/><path d="m32 6.001c-.001 7.179-5.821 12.999-13 12.999-4.884 0-9.134-2.697-11.356-6.679 1.47 5.568 6.526 9.679 12.556 9.679 7.18 0 13-5.82 13-13v-1.172c0-.875-.522-1.531-1.2-1.827z" fill="#4481c7"/><path d="m21.286 22.128.593-.593c2.013-2.013 3.121-4.689 3.121-7.535h-2c0 2.312-.9 4.486-2.535 6.122l-.965.964-1.878-1.878c-1.551-1.551-2.184-3.837-1.652-5.966l-1.939-.485c-.702 2.807.133 5.82 2.178 7.865l1.308 1.308c-4.214 1.541-11.258 3.157-13.684-.485l-1.664 1.109c3.858 5.788 14.443 1.945 17.459.696 1.052 1.51 3.715 4.865 7.131 5.719l.484-1.94c-2.743-.685-5.042-3.595-5.957-4.901z" fill="#4481c7"/><path d="m21 35.051v-3.051h-2v3.051c-2.244.252-4 2.139-4 4.449 0 2.481 2.019 4.5 4.5 4.5h1c1.379 0 2.5 1.122 2.5 2.5s-1.121 2.5-2.5 2.5h-1c-1.379 0-2.5-1.122-2.5-2.5v-.5h-2v.5c0 2.31 1.756 4.197 4 4.449v3.051h2v-3.051c2.244-.252 4-2.139 4-4.449 0-2.481-2.019-4.5-4.5-4.5h-1c-1.379 0-2.5-1.122-2.5-2.5s1.121-2.5 2.5-2.5h1c1.379 0 2.5 1.122 2.5 2.5v.5h2v-.5c0-2.31-1.756-4.197-4-4.449z" fill="#fff"/></svg>