<svg id="Capa_1" enable-background="new 0 0 512 512" height="512" viewBox="0 0 512 512" width="512" xmlns="http://www.w3.org/2000/svg"><g><g><path d="m416.88 461h-159.736c-27.091 0-52.992-11.59-71.062-31.797-17.895-20.012-26.452-46.718-23.478-73.272 4.494-40.117 17.633-79.558 37.998-114.058 21.218-35.946 49.228-65.672 83.25-88.354 2.464-1.643 5.359-2.52 8.32-2.52h89.678c2.961 0 5.856.877 8.32 2.52 34.023 22.682 62.032 52.408 83.25 88.354 20.365 34.5 33.504 73.94 37.998 114.058 2.975 26.555-5.583 53.261-23.478 73.272-18.069 20.207-43.969 31.797-71.06 31.797z" fill="#0a789b"/></g><g><path d="m511.408 355.931c-4.494-40.117-17.633-79.558-37.998-114.058-21.218-35.945-49.228-65.672-83.25-88.354-2.464-1.643-5.359-2.52-8.32-2.52h-44.84v310h79.868c27.091 0 52.992-11.59 71.062-31.797 17.895-20.011 26.452-46.717 23.478-73.271z" fill="#0a617d"/></g><g><path d="m355.663 293.408c-2.316-.819-4.677-1.67-7.039-2.548v-42.301c4.34 1.496 6.586 3.673 6.883 3.976 4.545 5.136 12.391 5.65 17.571 1.138 5.205-4.535 5.748-12.431 1.212-17.636-4.271-4.901-13.125-11.051-25.666-13.147v-6.89c0-6.903-5.596-12.5-12.5-12.5s-12.5 5.597-12.5 12.5v8.276c-.876.228-1.759.474-2.652.743-15.112 4.552-26.398 17.456-29.455 33.676-2.803 14.873 2.02 29.26 12.583 37.545 5.057 3.967 11.231 7.603 19.523 11.389v54.914c-6.048-.804-10.574-2.783-17.66-7.419-5.777-3.781-13.524-2.159-17.304 3.617s-2.16 13.523 3.617 17.304c12.257 8.018 20.875 10.781 31.347 11.646v8.309c0 6.903 5.596 12.5 12.5 12.5s12.5-5.597 12.5-12.5v-9.477c8.214-2.01 15.684-5.989 22.009-11.801 8.459-7.771 14.168-18.302 16.076-29.649 3.925-23.332-8.262-43.611-31.045-51.665zm-36.133-16.839c-3.144-2.466-4.497-7.665-3.445-13.244.794-4.211 3.172-9.099 7.539-12.153v28.232c-1.481-.926-2.863-1.869-4.094-2.835zm42.526 64.359c-1.217 7.239-5.768 14.875-13.432 19.01v-42.469c14.657 5.876 14.302 18.288 13.432 23.459z" fill="#fff16b"/><g><g><path d="m355.663 293.408c-2.316-.819-4.677-1.67-7.039-2.548v-42.301c4.34 1.496 6.586 3.673 6.883 3.976 4.545 5.136 12.391 5.65 17.571 1.138 5.205-4.535 5.748-12.431 1.212-17.636-4.271-4.901-13.125-11.051-25.666-13.147v-6.89c0-6.604-5.125-11.998-11.612-12.455v204.91c6.488-.457 11.612-5.852 11.612-12.455v-9.477c8.214-2.01 15.684-5.989 22.009-11.801 8.459-7.771 14.168-18.302 16.076-29.649 3.924-23.332-8.263-43.611-31.046-51.665zm6.393 47.52c-1.217 7.239-5.768 14.875-13.432 19.01v-42.469c14.657 5.876 14.302 18.288 13.432 23.459z" fill="#ffc178"/></g></g><g><path d="m381.852 121h-89.68c-2.953 0-5.84-.871-8.3-2.506l-3.531-2.346c-30.262-20.103-48.329-53.795-48.329-90.126 0-5.532 3.045-10.626 7.922-13.236s10.795-2.336 15.398.733c22.281 14.854 51.077 14.854 73.358 0 5.039-3.359 11.603-3.359 16.642 0 22.281 14.854 51.077 14.854 73.358 0 4.604-3.069 10.521-3.354 15.398-.745 4.877 2.61 7.922 7.693 7.922 13.226 0 36.354-18.067 70.046-48.329 90.148l-3.531 2.346c-2.458 1.635-5.345 2.506-8.298 2.506z" fill="#0a789b"/></g><g><path d="m434.09 12.774c-4.877-2.609-10.795-2.324-15.398.745-22.281 14.854-51.077 14.854-73.358 0-2.52-1.68-5.42-2.52-8.321-2.52v110h44.84c2.953 0 5.84-.871 8.3-2.506l3.531-2.346c30.261-20.101 48.328-53.793 48.328-90.147 0-5.532-3.045-10.615-7.922-13.226z" fill="#0a617d"/></g><g><g><path d="m235 501h-180c-8.284 0-15-6.716-15-15v-40c0-8.284 6.716-15 15-15h180c8.284 0 15 6.716 15 15v40c0 8.284-6.716 15-15 15z" fill="#fff16b"/></g></g><g><g><path d="m235 431h-90v70h90c8.284 0 15-6.716 15-15v-40c0-8.284-6.716-15-15-15z" fill="#ffc178"/></g></g><g><g><path d="m195 431h-180c-8.284 0-15-6.716-15-15v-40c0-8.284 6.716-15 15-15h180c8.284 0 15 6.716 15 15v40c0 8.284-6.716 15-15 15z" fill="#ffc178"/></g></g><g><path d="m195 361h-90v70h90c8.284 0 15-6.716 15-15v-40c0-8.284-6.716-15-15-15z" fill="#ff8659"/></g><g><g><path d="m235 361h-180c-8.284 0-15-6.716-15-15v-40c0-8.284 6.716-15 15-15h180c8.284 0 15 6.716 15 15v40c0 8.284-6.716 15-15 15z" fill="#fff16b"/></g></g><g><g><path d="m235 291h-90v70h90c8.284 0 15-6.716 15-15v-40c0-8.284-6.716-15-15-15z" fill="#ffc178"/></g></g><g><g><path d="m402.012 166h-130c-16.569 0-30-13.431-30-30 0-16.569 13.431-30 30-30h130c16.569 0 30 13.431 30 30 0 16.569-13.431 30-30 30z" fill="#fff16b"/></g></g><g><g><path d="m402.012 106h-65v60h65c16.569 0 30-13.431 30-30 0-16.569-13.431-30-30-30z" fill="#ffc178"/></g></g></g></g></svg>