<svg id="Capa_1" enable-background="new 0 0 512 512" height="512" viewBox="0 0 512 512" width="512" xmlns="http://www.w3.org/2000/svg"><g><path d="m512 416.67c0 8.28-6.72 15-15 15h-397.02c-15.18 0-28.04-11.36-29.92-26.42l-4.26-34.02c-2.237-17.877 11.672-33.816 29.81-33.9 78.066-.401 62.177-.33 64.39-.33 8.25 0 14.96 6.66 15 14.92.04 8.29-6.64 15.04-14.92 15.08-66.896.343-64.448.264-64.51.45 4.558 36.552 4.197 34.22 4.41 34.22h397.02c8.28 0 15 6.71 15 15z" fill="#00357b"/><path d="m512 416.67c0 8.28-6.72 15-15 15h-193v-30h193c8.28 0 15 6.71 15 15z" fill="#001737"/><path d="m175.667 401.667c-30.419 0-55.167 24.748-55.167 55.167s24.748 55.166 55.167 55.166 55.166-24.748 55.166-55.167-24.747-55.166-55.166-55.166z" fill="#00357b"/><path d="m416.667 401.667c-30.419 0-55.167 24.748-55.167 55.167s24.748 55.166 55.167 55.166 55.166-24.748 55.166-55.167-24.747-55.166-55.166-55.166z" fill="#001737"/><path d="m111.383 110.336c-7.112 0-13.426-5.078-14.742-12.323l-12.219-67.294c-.203-1.118 3.171-.719-69.422-.719-8.284 0-15-6.716-15-15s6.716-15 15-15h68.561c14.935 0 27.711 10.666 30.378 25.36l12.219 67.294c1.667 9.177-5.374 17.682-14.775 17.682z" fill="#00357b"/><path d="m475.275 80.96c-17.464-.03-346.014-.599-363.849-.63-9.301 0-16.258 8.281-14.847 17.316l40.17 257.07c1.141 7.301 7.43 12.684 14.82 12.684h312.25c26.896 0 47.18-20.377 47.18-47.4v-203.25c.001-19.7-16.024-35.755-35.724-35.79z" fill="#ffec00"/><path d="m512 116.75v203.25c0 27.02-20.32 47.4-47.26 47.4h-160.74v-286.74c166.681.285-3.275.007 172.22.3 19.73.03 35.78 16.09 35.78 35.79z" fill="#ffd92e"/><path d="m392.15 183.64-59.31 59.35c-15.861 15.86-41.556 15.894-57.45 0l-59.31-59.35c-14.225-14.247-4.126-38.64 16.02-38.64h25.03v-96.01c0-17.64 14.36-31.99 31.99-31.99h29.98c17.64 0 32 14.35 32 32v96h25.04c20.13 0 30.237 24.391 16.01 38.64z" fill="#58b354"/><path d="m392.15 183.64-59.31 59.35c-7.67 7.67-17.87 11.9-28.72 11.9-.187 0-.12 11.299-.12-237.89h15.1c17.64 0 32 14.35 32 32v96h25.04c20.13 0 30.237 24.391 16.01 38.64z" fill="#00a963"/></g></svg>