<svg id="Capa_1" enable-background="new 0 0 512 512" height="512" viewBox="0 0 512 512" width="512" xmlns="http://www.w3.org/2000/svg"><g><g fill="#d88a55"><path d="m100.959 174.907h10.556v-29.004h-26.468v34.294c4.443-3.321 9.952-5.29 15.912-5.29z"/><path d="m274.541 145.903v29.004h10.555c5.961 0 11.47 1.969 15.912 5.29v-34.294z"/></g><g><path d="m297.508 317.477h-232.773c-16.363 0-29.627 13.265-29.627 29.627v159.745c0 2.845 2.306 5.151 5.151 5.151h256.25l1-3v-191.523z" fill="#99e6fc"/></g><g><path d="m78.204 506.849v-159.745c0-16.363 13.264-29.627 29.627-29.627h-43.096c-16.363 0-29.627 13.265-29.627 29.627v159.745c0 2.845 2.306 5.151 5.151 5.151h43.097c-2.846 0-5.152-2.306-5.152-5.151z" fill="#62dbfb"/></g><path d="m194.454 349.918c-.379.386-.886.598-1.426.598-.541 0-1.048-.212-1.427-.598l-6.074-6.178v147.141c0 4.142 3.357 7.5 7.5 7.5s7.5-3.358 7.5-7.5v-147.14z" fill="#01c0fa"/><path d="m216.287 285.079h-46.519c-3.182 0-6.302-.266-9.347-.76l-33.536 33.158v60.657c0 2.449 2.713 3.925 4.769 2.595l61.373-39.706 61.373 39.706c2.056 1.33 4.769-.146 4.769-2.595v-60.657l-33.536-33.158c-3.044.493-6.164.76-9.346.76z" fill="#62dbfb"/><path d="m216.287 285.079h-46.519c-3.924 0-7.757-.396-11.466-1.139v29.117c0 2.833 1.113 5.553 3.099 7.573l29.486 29.99c1.176 1.196 3.103 1.196 4.278 0l29.486-29.99c1.986-2.02 3.099-4.74 3.099-7.573v-29.117c-3.706.743-7.539 1.139-11.463 1.139z" fill="#ffbd86"/><path d="m186.024 306.993v-20.915h-16.255c-3.924 0-7.755-.391-11.466-1.119v28.096c0 2.833 1.113 5.553 3.099 7.573l29.486 29.99c1.176 1.196 3.103 1.196 4.278 0l14.702-14.953-20.745-21.1c-1.986-2.019-3.099-4.739-3.099-7.572z" fill="#f6a96c"/><g><path d="m111.515 226.824v-52.917h-10.556c-15.259 0-27.629 12.37-27.629 27.629v10.291c0 15.259 12.37 27.629 27.629 27.629h11.951c-.904-4.07-1.395-8.294-1.395-12.632z" fill="#f6a96c"/><path d="m285.096 173.907h-10.555v52.917c0 4.338-.492 8.562-1.395 12.632h11.95c15.259 0 27.629-12.37 27.629-27.629v-10.291c0-15.259-12.37-27.629-27.629-27.629z" fill="#ffbd86"/></g><g><path d="m110.514 145.903v80.922c0 32.725 26.529 59.254 59.254 59.254h46.518c32.725 0 59.254-26.529 59.254-59.254v-80.922z" fill="#fed2a4"/></g><g><path d="m142.483 226.824v-80.922h-31.968v80.922c0 32.725 26.529 59.254 59.254 59.254h31.968c-32.725.001-59.254-26.528-59.254-59.254z" fill="#ffbd86"/></g><path d="m301.008 119.818v-6.725c0-55.301-44.83-100.131-100.131-100.131h-15.697c-55.301 0-100.131 44.83-100.131 100.131v6.725z" fill="#faea5e"/><path d="m128.258 118.819v-5.725c0-32.273 15.284-60.959 38.991-79.269l-1.703-12.897c-.276-2.088-.193-4.131.197-6.074-45.998 9.049-80.696 49.589-80.696 98.24v5.725z" fill="#ffd600"/><path d="m471.742 293.457h-21.853l-1 1.495v186.952c0 1.153-.938 2.09-2.091 2.09h-120.195c-1.153 0-2.091-.938-2.091-2.09v-186.92l-1-1.528h-21.853c-2.845 0-5.151 2.306-5.151 5.151v213.393h175.233c2.845 0 5.151-2.306 5.151-5.151v-208.241c.001-2.844-2.306-5.151-5.15-5.151z" fill="#ea9b58"/><path d="m326.603 484.996c-1.707 0-3.09-1.384-3.09-3.091v-188.447h-21.853c-2.845 0-5.151 2.306-5.151 5.151v213.391h42.936v-27.004z" fill="#d88a55"/><path d="m428.07 293.457v15.806c0 2.289-1.862 4.151-4.15 4.151h-74.438c-2.289 0-4.151-1.862-4.151-4.151v-15.806h-21.818v188.448c0 1.707 1.384 3.091 3.09 3.091h120.196c1.707 0 3.091-1.384 3.091-3.091v-188.448z" fill="#f2fbff"/><path d="m355.927 481.905v-167.491h-6.446c-2.845 0-5.151-2.306-5.151-5.151v-15.806h-20.818v188.448c0 1.707 1.384 3.091 3.09 3.091h32.416c-1.707 0-3.091-1.384-3.091-3.091z" fill="#dff6fd"/><path d="m409.613 280.694v-6.932c0-12.654-10.258-22.913-22.913-22.913-12.655 0-22.913 10.258-22.913 22.913v6.932z" fill="#fea613"/><path d="m384.174 279.694v-5.932c0-8.991 5.182-16.769 12.719-20.52-3.071-1.528-6.531-2.392-10.193-2.392-12.655 0-22.913 10.258-22.913 22.913v5.932h20.387z" fill="#fe9901"/><g><g><g><path d="m156.84 201.149c-4.143 0-7.5-3.358-7.5-7.5v-14.341c0-4.142 3.357-7.5 7.5-7.5s7.5 3.358 7.5 7.5v14.341c0 4.143-3.358 7.5-7.5 7.5z" fill="#d88a55"/></g><g><path d="m229.215 201.149c-4.143 0-7.5-3.358-7.5-7.5v-14.341c0-4.142 3.357-7.5 7.5-7.5s7.5 3.358 7.5 7.5v14.341c0 4.143-3.358 7.5-7.5 7.5z" fill="#d88a55"/></g></g><g><path d="m193.027 263.287c-12.119 0-23.52-4.725-32.099-13.305-2.93-2.929-2.93-7.677-.001-10.606 2.93-2.929 7.678-2.93 10.607 0 5.746 5.747 13.38 8.912 21.492 8.912 8.113 0 15.746-3.165 21.492-8.912 2.93-2.929 7.679-2.93 10.606 0 2.93 2.929 2.93 7.677.001 10.606-8.578 8.58-19.978 13.305-32.098 13.305z" fill="#d88a55"/></g><g><path d="m200.688 224.112h-11.487c-4.143 0-7.5-3.358-7.5-7.5v-20.412c0-4.142 3.357-7.5 7.5-7.5s7.5 3.358 7.5 7.5v12.912h3.987c4.143 0 7.5 3.358 7.5 7.5s-3.357 7.5-7.5 7.5z" fill="#d88a55"/></g></g><g><path d="m306.23 146.903h-226.405c-7.755 0-14.042-6.287-14.042-14.042 0-7.755 6.287-14.042 14.042-14.042h226.405c7.755 0 14.042 6.287 14.042 14.042 0 7.755-6.287 14.042-14.042 14.042z" fill="#fea613"/></g><g><path d="m119.982 132.861c0-7.755 6.287-14.042 14.042-14.042h-54.199c-7.755 0-14.042 6.287-14.042 14.042 0 7.755 6.287 14.042 14.042 14.042h54.199c-7.755 0-14.042-6.287-14.042-14.042z" fill="#fe9901"/></g><g><path d="m165.546 20.928 8.445 63.959c.197 1.492 1.469 2.607 2.974 2.607h32.125c1.505 0 2.777-1.115 2.974-2.607l8.445-63.959c1.464-11.086-7.164-20.928-18.346-20.928h-18.271c-11.182 0-19.81 9.842-18.346 20.928z" fill="#fea613"/></g><g><path d="m203.825.08c-.548-.049-1.1-.08-1.662-.08h-18.271c-11.182 0-19.81 9.842-18.346 20.928l8.445 63.959c.197 1.492 1.469 2.607 2.974 2.607h18.964l-8.789-66.566c-1.39-10.53 6.325-19.93 16.685-20.848z" fill="#fe9901"/></g><g><path d="m423.92 314.414h-74.438c-2.845 0-5.151-2.306-5.151-5.151v-24.418c0-2.845 2.306-5.151 5.151-5.151h74.438c2.845 0 5.151 2.306 5.151 5.151v24.418c-.001 2.845-2.307 5.151-5.151 5.151z" fill="#faea5e"/></g><g><path d="m376.531 309.264v-24.418c0-2.845 2.306-5.151 5.151-5.151h-32.201c-2.845 0-5.151 2.306-5.151 5.151v24.418c0 2.845 2.306 5.151 5.151 5.151h32.201c-2.845-.001-5.151-2.307-5.151-5.151z" fill="#ffd600"/></g><g><path d="m355.539 370.437c-1.919 0-3.839-.732-5.304-2.197l-9.575-9.575c-2.929-2.929-2.929-7.678 0-10.606 2.93-2.929 7.678-2.929 10.607 0l4.271 4.272 7.403-7.404c2.93-2.929 7.678-2.929 10.607 0s2.929 7.678 0 10.606l-12.707 12.707c-1.463 1.464-3.383 2.197-5.302 2.197z" fill="#68ca44"/></g><g><path d="m426.977 366.116h-39.967c-4.143 0-7.5-3.358-7.5-7.5s3.357-7.5 7.5-7.5h39.967c4.143 0 7.5 3.358 7.5 7.5s-3.358 7.5-7.5 7.5z" fill="#99e6fc"/></g><g><path d="m426.977 395.281h-39.967c-4.143 0-7.5-3.358-7.5-7.5s3.357-7.5 7.5-7.5h39.967c4.143 0 7.5 3.358 7.5 7.5s-3.358 7.5-7.5 7.5z" fill="#99e6fc"/></g><g><path d="m363.246 395.281h-17.282c-4.143 0-7.5-3.358-7.5-7.5s3.357-7.5 7.5-7.5h17.282c4.143 0 7.5 3.358 7.5 7.5s-3.357 7.5-7.5 7.5z" fill="#99e6fc"/></g><g><path d="m363.246 424.445h-17.282c-4.143 0-7.5-3.358-7.5-7.5s3.357-7.5 7.5-7.5h17.282c4.143 0 7.5 3.358 7.5 7.5s-3.357 7.5-7.5 7.5z" fill="#99e6fc"/></g><g><path d="m363.246 453.61h-17.282c-4.143 0-7.5-3.358-7.5-7.5s3.357-7.5 7.5-7.5h17.282c4.143 0 7.5 3.358 7.5 7.5s-3.357 7.5-7.5 7.5z" fill="#99e6fc"/></g><g><path d="m426.977 424.445h-39.967c-4.143 0-7.5-3.358-7.5-7.5s3.357-7.5 7.5-7.5h39.967c4.143 0 7.5 3.358 7.5 7.5s-3.358 7.5-7.5 7.5z" fill="#99e6fc"/></g><g><path d="m426.977 453.61h-39.967c-4.143 0-7.5-3.358-7.5-7.5s3.357-7.5 7.5-7.5h39.967c4.143 0 7.5 3.358 7.5 7.5s-3.358 7.5-7.5 7.5z" fill="#99e6fc"/></g></g></svg>