<?xml version="1.0" standalone="no"?>
<!DOCTYPE svg PUBLIC "-//W3C//DTD SVG 1.1//EN" "http://www.w3.org/Graphics/SVG/1.1/DTD/svg11.dtd" >
<svg xmlns="http://www.w3.org/2000/svg">
<metadata>Generated by IcoMoon</metadata>
<defs>
<font id="gaxon" horiz-adv-x="1024">
<font-face units-per-em="1024" ascent="960" descent="-64" />
<missing-glyph horiz-adv-x="1024" />
<glyph unicode="&#x20;" horiz-adv-x="512" d="" />
<glyph unicode="&#xe900;" glyph-name="add" d="M853.333 477.867h-311.467v311.467c0 17.067-12.8 34.133-34.133 34.133s-25.6-17.067-25.6-34.133v-311.467h-311.467c-17.067 0-34.133-12.8-34.133-34.133s12.8-34.133 34.133-34.133h311.467v-302.933c0-17.067 12.8-34.133 34.133-34.133s34.133 12.8 34.133 34.133v311.467h302.933c17.067 0 34.133 12.8 34.133 34.133s-17.067 25.6-34.133 25.6z" />
<glyph unicode="&#xe901;" glyph-name="add-circle" d="M512 911.238c-253.562 0-463.238-209.676-463.238-463.238s209.676-463.238 463.238-463.238 463.238 209.676 463.238 463.238-209.676 463.238-463.238 463.238zM512 33.524c-229.181 0-414.476 185.295-414.476 414.476s185.295 414.476 414.476 414.476c229.181 0 414.476-185.295 414.476-414.476s-185.295-414.476-414.476-414.476zM707.048 472.381h-170.667v170.667c0 14.629-9.752 24.381-24.381 24.381s-24.381-9.752-24.381-24.381v-170.667h-170.667c-14.629 0-24.381-9.752-24.381-24.381s9.752-24.381 24.381-24.381h170.667v-170.667c0-14.629 9.752-24.381 24.381-24.381s24.381 9.752 24.381 24.381v170.667h170.667c14.629 0 24.381 9.752 24.381 24.381s-9.752 24.381-24.381 24.381z" />
<glyph unicode="&#xe902;" glyph-name="affix" d="M793.6 742.4c46.933 0 85.333 38.4 85.333 85.333s-38.4 85.333-85.333 85.333h-580.267c-46.933 0-85.333-38.4-85.333-85.333s38.4-85.333 85.333-85.333h38.4v-311.467c0 0-4.267 0-4.267-4.267l-68.267-102.4c-4.267-8.533-8.533-21.333 0-29.867 0-12.8 8.533-17.067 21.333-17.067h273.067v-256c0-17.067 12.8-29.867 29.867-29.867s29.867 12.8 29.867 29.867v256h251.733c12.8 0 21.333 4.267 25.6 17.067 4.267 8.533 4.267 21.333 0 29.867l-68.267 102.4c0 0-4.267 4.267-4.267 4.267v311.467h55.467zM183.467 832c0 17.067 12.8 29.867 29.867 29.867h584.533c17.067 0 29.867-12.8 29.867-29.867s-17.067-29.867-34.133-29.867h-580.267c-17.067 0-29.867 12.8-29.867 29.867zM256 337.067l29.867 46.933h413.867l29.867-46.933h-473.6zM678.4 439.467h-371.2v302.933h371.2v-302.933z" />
<glyph unicode="&#xe903;" glyph-name="alert" d="M955.733 494.933c0 85.333-68.267 157.867-153.6 157.867v256c0 12.8-4.267 21.333-17.067 29.867-8.533 4.267-21.333 4.267-34.133 0l-341.333-200.533h-149.333c-51.2 0-98.133-42.667-98.133-98.133v-17.067h-64c-17.067 0-34.133-12.8-34.133-34.133v-268.8c0-17.067 12.8-34.133 34.133-34.133h64c0-46.933 34.133-85.333 81.067-93.867v-145.067c0-51.2 42.667-98.133 98.133-98.133h17.067c51.2 0 98.133 42.667 98.133 98.133v123.733l307.2-153.6c4.267-4.267 8.533-4.267 12.8-4.267s12.8 0 17.067 4.267c8.533 4.267 17.067 17.067 17.067 25.6v290.133c76.8 8.533 145.067 76.8 145.067 162.133zM128 349.867v209.067h34.133v-209.067h-34.133zM226.133 285.867v354.133c0 17.067 12.8 34.133 34.133 34.133h128v-418.133h-128c-21.333 0-34.133 12.8-34.133 29.867zM354.133 17.067h-17.067c-17.067 0-34.133 12.8-34.133 34.133v140.8h81.067v-145.067c4.267-17.067-12.8-29.867-29.867-29.867zM738.133 98.133l-290.133 145.067v443.733l290.133 170.667v-759.467zM802.133 401.067v192c51.2-4.267 89.6-42.667 89.6-93.867s-38.4-93.867-89.6-98.133z" />
<glyph unicode="&#xe904;" glyph-name="alert-new" d="M917.333 733.867h-810.667c-55.467 0-98.133-42.667-98.133-98.133v-379.733c0-55.467 42.667-98.133 98.133-98.133h810.667c55.467 0 98.133 42.667 98.133 98.133v379.733c0 55.467-42.667 98.133-98.133 98.133zM951.467 260.267c0-21.333-17.067-34.133-34.133-34.133h-810.667c-21.333 0-34.133 17.067-34.133 34.133v375.467c0 21.333 17.067 34.133 34.133 34.133h810.667c21.333 0 34.133-17.067 34.133-34.133v-375.467zM354.133 550.4c-12.8 12.8-34.133 12.8-46.933 0l-51.2-55.467-51.2 55.467c-12.8 12.8-34.133 12.8-46.933 0s-12.8-34.133 0-46.933l51.2-51.2-51.2-51.2c-12.8-12.8-12.8-34.133 0-46.933 4.267-4.267 12.8-8.533 21.333-8.533s17.067 4.267 21.333 8.533l55.467 51.2 51.2-51.2c4.267-4.267 12.8-8.533 21.333-8.533s17.067 4.267 21.333 8.533c12.8 12.8 12.8 34.133 0 46.933l-51.2 51.2 51.2 51.2c17.067 12.8 17.067 34.133 4.267 46.933zM823.467 499.2h-315.733c-17.067 0-34.133-12.8-34.133-34.133s12.8-34.133 34.133-34.133h315.733c17.067 0 34.133 12.8 34.133 34.133s-17.067 34.133-34.133 34.133z" />
<glyph unicode="&#xe905;" glyph-name="all-contacts" d="M981.333 691.2h-661.333c-17.067 0-34.133 12.8-34.133 34.133s12.8 34.133 34.133 34.133h661.333c17.067 0 34.133-12.8 34.133-34.133s-17.067-34.133-34.133-34.133zM981.333 413.867h-661.333c-17.067 0-34.133 12.8-34.133 34.133s12.8 34.133 34.133 34.133h661.333c17.067 0 34.133-12.8 34.133-34.133s-17.067-34.133-34.133-34.133zM981.333 140.8h-661.333c-17.067 0-34.133 12.8-34.133 34.133s12.8 34.133 34.133 34.133h661.333c17.067 0 34.133-12.8 34.133-34.133s-17.067-34.133-34.133-34.133zM153.6 725.333c0-30.633-24.833-55.467-55.467-55.467s-55.467 24.833-55.467 55.467c0 30.633 24.833 55.467 55.467 55.467s55.467-24.833 55.467-55.467zM153.6 448c0-30.633-24.833-55.467-55.467-55.467s-55.467 24.833-55.467 55.467c0 30.633 24.833 55.467 55.467 55.467s55.467-24.833 55.467-55.467zM153.6 170.667c0-30.633-24.833-55.467-55.467-55.467s-55.467 24.833-55.467 55.467c0 30.633 24.833 55.467 55.467 55.467s55.467-24.833 55.467-55.467z" />
<glyph unicode="&#xe906;" glyph-name="amChart" d="M204.8 285.867c-85.333 0-170.667 4.267-174.933 4.267-17.067 0-29.867 12.8-29.867 29.867s12.8 29.867 29.867 29.867c85.333 0 119.467 64 157.867 132.267 34.133 64 68.267 123.733 140.8 123.733 64 0 106.667-51.2 140.8-106.667 21.333 38.4 38.4 68.267 68.267 68.267 42.667 0 72.533-38.4 89.6-64 8.533-8.533 17.067-25.6 25.6-29.867 4.267 4.267 21.333 25.6 29.867 38.4 17.067 25.6 38.4 55.467 68.267 55.467 25.6 0 42.667-25.6 76.8-72.533 42.667-59.733 102.4-145.067 162.133-149.333v0c17.067 0 29.867-12.8 29.867-29.867s-12.8-29.867-29.867-29.867h-405.333c-51.2 0-85.333 42.667-115.2 93.867-29.867-42.667-72.533-85.333-136.533-93.867-34.133 0-81.067 0-128 0zM166.4 345.6c55.467 0 119.467 0 162.133 4.267 51.2 4.267 85.333 46.933 110.933 89.6-34.133 55.467-68.267 106.667-110.933 106.667-34.133 0-55.467-34.133-85.333-93.867-21.333-34.133-46.933-76.8-76.8-106.667zM507.733 439.467c25.6-46.933 55.467-89.6 81.067-89.6h285.867c-38.4 34.133-68.267 81.067-93.867 115.2-8.533 12.8-21.333 29.867-29.867 42.667-4.267-8.533-12.8-17.067-17.067-25.6-21.333-29.867-42.667-64-81.067-64-34.133 0-55.467 29.867-72.533 51.2-12.8 17.067-25.6 34.133-38.4 38.4-8.533-8.533-17.067-29.867-25.6-46.933-4.267-4.267-4.267-12.8-8.533-21.333zM742.4 516.267v0 0z" />
<glyph unicode="&#xe907;" glyph-name="anchor" d="M187.733 593.067c0 0 0 4.267 0 0v302.933c0 17.067-12.8 34.133-34.133 34.133s-29.867-17.067-29.867-34.133v-298.667c0 0 0-4.267 0-4.267-55.467-12.8-98.133-64-98.133-123.733s42.667-110.933 98.133-123.733c0 0 0-4.267 0-4.267v-341.333c0-17.067 12.8-34.133 34.133-34.133s34.133 12.8 34.133 34.133v341.333c0 0 0 4.267 0 4.267 55.467 12.8 98.133 64 98.133 123.733s-46.933 110.933-102.4 123.733zM153.6 384c-46.933 0-85.333 38.4-85.333 85.333s38.4 85.333 85.333 85.333c46.933 0 85.333-38.4 85.333-85.333s-38.4-85.333-85.333-85.333zM494.933 861.867h469.333c17.067 0 34.133 12.8 34.133 34.133s-17.067 29.867-34.133 29.867h-469.333c-17.067 0-34.133-12.8-34.133-34.133s17.067-29.867 34.133-29.867zM964.267 712.533h-469.333c-17.067 0-34.133-12.8-34.133-34.133s12.8-34.133 34.133-34.133h469.333c17.067 0 34.133 12.8 34.133 34.133s-17.067 34.133-34.133 34.133zM964.267 499.2h-469.333c-17.067 0-34.133-12.8-34.133-34.133s12.8-34.133 34.133-34.133h469.333c17.067 0 34.133 12.8 34.133 34.133s-17.067 34.133-34.133 34.133zM964.267 285.867h-469.333c-17.067 0-34.133-12.8-34.133-34.133s12.8-34.133 34.133-34.133h469.333c17.067 0 34.133 12.8 34.133 34.133s-17.067 34.133-34.133 34.133zM964.267 72.533h-469.333c-17.067 0-34.133-12.8-34.133-34.133s12.8-34.133 34.133-34.133h469.333c17.067 0 34.133 12.8 34.133 34.133s-17.067 34.133-34.133 34.133z" />
<glyph unicode="&#xe908;" glyph-name="apps" d="M42.667 917.333h264.533v-264.533h-264.533v264.533zM42.667 580.267h264.533v-264.533h-264.533v264.533zM42.667 243.2h264.533v-264.533h-264.533v264.533zM379.733 917.333h264.533v-264.533h-264.533v264.533zM379.733 580.267h264.533v-264.533h-264.533v264.533zM379.733 243.2h264.533v-264.533h-264.533v264.533zM716.8 917.333h264.533v-264.533h-264.533v264.533zM716.8 580.267h264.533v-264.533h-264.533v264.533zM716.8 243.2h264.533v-264.533h-264.533v264.533z" />
<glyph unicode="&#xe909;" glyph-name="apps-new" d="M85.333 448h384v384h-384v-384zM128 789.333h298.667v-298.667h-298.667v298.667zM85.333-21.333h384v384h-384v-384zM128 320h298.667v-298.667h-298.667v298.667zM554.667 832v-384h384v384h-384zM896 490.667h-298.667v298.667h298.667v-298.667zM768 320h-42.667v-128h-128v-42.667h128v-128h42.667v128h128v42.667h-128z" />
<glyph unicode="&#xe90a;" glyph-name="arrow-left" d="M981.333 448h-866.133l226.133 298.667c8.533 12.8 8.533 34.133-4.267 46.933-17.067 8.533-38.4 8.533-46.933-4.267l-264.533-354.133c-8.533-12.8-8.533-25.6 0-38.4l264.533-354.133c4.267-8.533 17.067-12.8 25.6-12.8s12.8 0 17.067 8.533c12.8 8.533 17.067 29.867 4.267 42.667l-226.133 298.667h870.4c17.067 0 34.133 12.8 34.133 34.133s-17.067 34.133-34.133 34.133z" />
<glyph unicode="&#xe90b;" glyph-name="arrow-right" d="M51.2 448h866.133l-226.133 298.667c-8.533 12.8-8.533 34.133 4.267 46.933 12.8 8.533 34.133 8.533 46.933-4.267l264.533-354.133c8.533-12.8 8.533-25.6 0-38.4l-264.533-354.133c-4.267-8.533-17.067-12.8-25.6-12.8s-12.8 0-17.067 8.533c-12.8 8.533-17.067 29.867-4.267 42.667l226.133 298.667h-870.4c-17.067 0-34.133 12.8-34.133 34.133s17.067 34.133 34.133 34.133z" />
<glyph unicode="&#xe90c;" glyph-name="attachment" d="M448 0c-8.533 0-17.067 4.267-21.333 8.533-12.8 12.8-12.8 34.133 0 46.933l460.8 460.8c34.133 34.133 55.467 81.067 55.467 132.267s-21.333 98.133-55.467 132.267c-72.533 72.533-192 72.533-264.533 0l-503.467-503.467c-21.333-21.333-34.133-55.467-34.133-85.333 0-34.133 12.8-64 34.133-85.333 46.933-46.933 128-46.933 174.933 0l465.067 465.067c25.6 25.6 25.6 68.267 0 93.867s-68.267 25.6-93.867 0l-413.867-413.867c-12.8-12.8-34.133-12.8-46.933 0s-12.8 34.133 0 46.933l413.867 413.867c51.2 51.2 132.267 51.2 183.467 0s51.2-132.267 0-183.467l-465.067-473.6c-72.533-72.533-192-72.533-264.533 0s-72.533 192 0 264.533l503.467 503.467c98.133 98.133 256 98.133 354.133 0 46.933-46.933 72.533-110.933 72.533-179.2s-25.6-132.267-72.533-179.2l-460.8-456.533c-4.267-8.533-12.8-8.533-21.333-8.533z" />
<glyph unicode="&#xe90d;" glyph-name="auth-screen" d="M473.6 605.867h-273.067c-17.067 0-29.867 12.8-29.867 34.133s12.8 34.133 34.133 34.133h273.067c17.067 0 34.133-12.8 34.133-34.133s-21.333-34.133-38.4-34.133zM473.6 469.333h-273.067c-17.067 0-34.133 12.8-34.133 34.133s17.067 29.867 34.133 29.867h273.067c17.067 0 34.133-12.8 34.133-34.133s-17.067-29.867-34.133-29.867zM473.6 332.8h-273.067c-17.067 0-34.133 12.8-34.133 34.133s12.8 34.133 34.133 34.133h273.067c17.067 0 34.133-12.8 34.133-34.133s-17.067-34.133-34.133-34.133zM755.2 187.733c-76.8 0-140.8 64-140.8 140.8s64 140.8 140.8 140.8 140.8-64 140.8-140.8-64-140.8-140.8-140.8zM755.2 401.067c-42.667 0-76.8-34.133-76.8-76.8s34.133-76.8 76.8-76.8 76.8 34.133 76.8 76.8-38.4 76.8-76.8 76.8zM930.133-55.467c-17.067 0-34.133 12.8-34.133 34.133 0 68.267-55.467 123.733-123.733 123.733h-38.4c-68.267 0-123.733-55.467-123.733-123.733 0-17.067-12.8-34.133-34.133-34.133s-34.133 12.8-34.133 34.133c0 102.4 85.333 187.733 187.733 187.733h38.4c102.4 0 187.733-85.333 187.733-187.733 4.267-17.067-8.533-34.133-25.6-34.133zM435.2-55.467h-349.867c-17.067 0-34.133 12.8-34.133 34.133v930.133c0 17.067 12.8 34.133 34.133 34.133h853.333c17.067 0 34.133-12.8 34.133-34.133v-388.267c0-17.067-12.8-34.133-34.133-34.133s-34.133 12.8-34.133 34.133v358.4h-785.067v-866.133h315.733c17.067 0 34.133-12.8 34.133-34.133s-17.067-34.133-34.133-34.133z" />
<glyph unicode="&#xe90e;" glyph-name="autocomplete" d="M904.533 733.867h-238.933l-140.8 183.467c-4.267 8.533-12.8 12.8-25.6 12.8-8.533 0-17.067-4.267-25.6-12.8l-115.2-183.467h-238.933c-59.733 0-106.667-46.933-106.667-106.667v-550.4c0-59.733 46.933-106.667 106.667-106.667h785.067c59.733 0 106.667 46.933 106.667 106.667v546.133c4.267 59.733-46.933 110.933-106.667 110.933zM955.733 72.533c0-25.6-21.333-51.2-51.2-51.2h-785.067c-25.6 0-51.2 21.333-51.2 51.2v550.4c0 25.6 21.333 51.2 51.2 51.2h256c8.533 0 21.333 4.267 25.6 12.8l106.667 162.133 123.733-162.133c4.267-8.533 12.8-12.8 25.6-12.8h256c25.6 0 51.2-21.333 51.2-51.2v-550.4zM797.867 221.867h-550.4c-17.067 0-29.867-12.8-29.867-29.867s12.8-29.867 29.867-29.867h550.4c17.067 0 29.867 12.8 29.867 29.867s-12.8 29.867-29.867 29.867zM797.867 379.733h-550.4c-17.067 0-29.867-12.8-29.867-29.867s12.8-29.867 29.867-29.867h550.4c17.067 0 29.867 12.8 29.867 29.867s-12.8 29.867-29.867 29.867zM797.867 537.6h-550.4c-17.067 0-29.867-12.8-29.867-29.867s12.8-29.867 29.867-29.867h550.4c17.067 0 29.867 12.8 29.867 29.867s-12.8 29.867-29.867 29.867z" />
<glyph unicode="&#xe90f;" glyph-name="avatar" d="M512 947.2c-277.333 0-499.2-221.867-499.2-499.2 0-170.667 85.333-324.267 217.6-413.867 0 0 0 0 0 0 81.067-55.467 174.933-85.333 281.6-85.333 277.333 0 503.467 226.133 503.467 503.467 0 273.067-226.133 494.933-503.467 494.933zM290.133 72.533c38.4 89.6 123.733 149.333 221.867 149.333s183.467-59.733 221.867-149.333c-64-38.4-140.8-59.733-221.867-59.733-81.067-4.267-157.867 21.333-221.867 59.733zM789.333 110.933c-51.2 106.667-157.867 174.933-277.333 174.933s-226.133-68.267-277.333-174.933c-98.133 81.067-162.133 200.533-162.133 337.067 4.267 243.2 196.267 435.2 439.467 435.2s439.467-196.267 439.467-439.467c0-132.267-64-256-162.133-332.8zM512 712.533c-102.4 0-187.733-85.333-187.733-187.733s85.333-187.733 187.733-187.733c102.4 0 187.733 85.333 187.733 187.733s-85.333 187.733-187.733 187.733zM512 401.067c-68.267 0-123.733 55.467-123.733 123.733s55.467 123.733 123.733 123.733 123.733-55.467 123.733-123.733-55.467-123.733-123.733-123.733z" />
<glyph unicode="&#xe910;" glyph-name="backtop" d="M537.6 618.667c-12.8 8.533-25.6 8.533-38.4 0l-170.667-128c-12.8-8.533-17.067-29.867-4.267-46.933 4.267-8.533 17.067-12.8 25.6-12.8s12.8 0 17.067 4.267l115.2 85.333v-456.533c0-17.067 12.8-34.133 34.133-34.133s34.133 12.8 34.133 34.133v469.333l123.733-93.867c12.8-8.533 34.133-8.533 42.667 4.267s8.533 34.133-4.267 46.933l-174.933 128zM896 861.867h-768c-17.067 0-29.867-12.8-29.867-29.867s12.8-34.133 29.867-34.133h768c17.067 0 34.133 12.8 34.133 34.133s-17.067 29.867-34.133 29.867z" />
<glyph unicode="&#xe911;" glyph-name="badge" d="M1002.667 674.133c0-141.385-114.615-256-256-256s-256 114.615-256 256c0 141.385 114.615 256 256 256s256-114.615 256-256zM746.667 332.8c-187.733 0-341.333 153.6-341.333 341.333 0 29.867 4.267 59.733 12.8 85.333h-290.133c-59.733 0-106.667-46.933-106.667-106.667v-584.533c0-59.733 46.933-106.667 106.667-106.667h635.733c59.733 0 106.667 46.933 106.667 106.667v285.867c-38.4-12.8-81.067-21.333-123.733-21.333z" />
<glyph unicode="&#xe912;" glyph-name="basic-calendar" d="M396.8 516.267h234.667c42.667 0 76.8 34.133 76.8 76.8v234.667c0 42.667-34.133 76.8-76.8 76.8h-234.667c-42.667 0-76.8-34.133-76.8-76.8v-234.667c0-42.667 34.133-76.8 76.8-76.8zM413.867 644.267l76.8 153.6c4.267 4.267 4.267 8.533 12.8 12.8 4.267 4.267 8.533 4.267 17.067 4.267 4.267 0 12.8 0 17.067-4.267s8.533-8.533 12.8-12.8l76.8-153.6c0-4.267 4.267-8.533 4.267-8.533 0-4.267-4.267-12.8-8.533-17.067s-12.8-8.533-17.067-8.533c-4.267 0-8.533 0-12.8 4.267s-8.533 4.267-8.533 8.533l-12.8 29.867h-102.4l-12.8-29.867c0-4.267-4.267-8.533-8.533-8.533-4.267-4.267-8.533-4.267-12.8-4.267-8.533 0-12.8 4.267-17.067 8.533-4.267 0-4.267 8.533-4.267 12.8s0 8.533 0 12.8zM516.267 755.2l-29.867-64h59.733zM264.533 213.333c4.267 4.267 8.533 8.533 8.533 12.8 0 8.533-4.267 12.8-8.533 17.067s-12.8 4.267-21.333 4.267h-38.4v-38.4h38.4c8.533-4.267 17.067 0 21.333 4.267zM247.467 166.4h-42.667v-42.667h42.667c8.533 0 17.067 0 21.333 4.267s8.533 8.533 8.533 17.067c0 8.533-4.267 12.8-8.533 17.067s-8.533 4.267-21.333 4.267zM358.4 379.733h-234.667c-42.667 0-76.8-34.133-76.8-76.8v-234.667c0-42.667 34.133-76.8 76.8-76.8h234.667c42.667 0 76.8 34.133 76.8 76.8v234.667c0 42.667-34.133 76.8-76.8 76.8zM315.733 110.933c-4.267-8.533-12.8-12.8-25.6-17.067s-21.333-8.533-38.4-8.533h-72.533c-8.533 0-12.8 0-17.067 4.267s-4.267 8.533-4.267 17.067v153.6c0 8.533 0 12.8 4.267 17.067s8.533 4.267 17.067 4.267h72.533c21.333 0 38.4-4.267 51.2-12.8s17.067-21.333 17.067-38.4c0-8.533-4.267-21.333-8.533-25.6s-12.8-12.8-21.333-17.067c12.8-4.267 21.333-8.533 25.6-17.067s8.533-17.067 8.533-29.867c0-12.8 0-21.333-8.533-29.867zM900.267 388.267h-234.667c-42.667 0-76.8-34.133-76.8-76.8v-234.667c0-42.667 34.133-76.8 76.8-76.8h234.667c42.667 0 76.8 34.133 76.8 76.8v234.667c4.267 42.667-34.133 76.8-76.8 76.8zM763.733 145.067c8.533-8.533 21.333-17.067 38.4-17.067 4.267 0 12.8 0 17.067 4.267 4.267 0 12.8 4.267 21.333 8.533 4.267 0 8.533 4.267 8.533 4.267s4.267 0 8.533 0c4.267 0 8.533 0 12.8-4.267s4.267-8.533 4.267-12.8c0-4.267 0-8.533 0-8.533 0-4.267-4.267-4.267-8.533-8.533-17.067-12.8-38.4-17.067-64-17.067-21.333 0-38.4 4.267-51.2 12.8-17.067 8.533-25.6 21.333-34.133 34.133-8.533 17.067-12.8 34.133-12.8 55.467s4.267 38.4 12.8 55.467c8.533 17.067 21.333 25.6 34.133 34.133 17.067 8.533 34.133 12.8 51.2 12.8 25.6 0 46.933-4.267 64-17.067 4.267-4.267 4.267-4.267 8.533-8.533 0-4.267 0-4.267 0-8.533s0-12.8-4.267-12.8c-4.267-4.267-8.533-4.267-12.8-4.267s-4.267 0-8.533 0-4.267 4.267-8.533 4.267c-8.533 4.267-12.8 8.533-17.067 8.533s-12.8 4.267-17.067 4.267c-17.067 0-29.867-4.267-38.4-17.067-8.533-8.533-12.8-25.6-12.8-46.933-4.267-29.867 0-42.667 8.533-55.467z" />
<glyph unicode="&#xe913;" glyph-name="birthday" d="M273.067 251.733c25.6-34.133 38.4-55.467 68.267-55.467s42.667 21.333 68.267 55.467c25.6 38.4 59.733 81.067 123.733 81.067s98.133-46.933 123.733-81.067c25.6-34.133 38.4-55.467 68.267-55.467s42.667 21.333 68.267 55.467c25.6 38.4 59.733 81.067 123.733 81.067 0 0 4.267 0 4.267 0v34.133c0 76.8-59.733 136.533-136.533 136.533h-200.533v119.467c0 42.667-34.133 72.533-72.533 72.533s-72.533-34.133-72.533-72.533v-119.467h-200.533c-76.8 0-136.533-59.733-136.533-136.533v-42.667c12.8 4.267 29.867 8.533 46.933 8.533 64 0 98.133-42.667 123.733-81.067zM930.133 59.733h-8.533v204.8c0 0-4.267 0-4.267 0-29.867 0-42.667-21.333-68.267-55.467-25.6-38.4-59.733-81.067-123.733-81.067s-98.133 46.933-123.733 81.067c-25.6 34.133-38.4 55.467-68.267 55.467s-42.667-21.333-68.267-55.467c-25.6-38.4-59.733-81.067-123.733-81.067s-98.133 46.933-123.733 81.067c-25.6 34.133-38.4 55.467-68.267 55.467-21.333 0-34.133-8.533-46.933-25.6v-179.2h-8.533c-29.867 0-51.2-21.333-51.2-51.2s21.333-51.2 51.2-51.2h836.267c29.867 0 51.2 21.333 51.2 51.2s-21.333 51.2-51.2 51.2zM512 738.133c42.667 0 72.533 34.133 72.533 72.533v51.2c0 42.667-34.133 72.533-72.533 72.533s-72.533-34.133-72.533-72.533v-51.2c0-38.4 29.867-72.533 72.533-72.533z" />
<glyph unicode="&#xe914;" glyph-name="birthday-new" d="M998.4 38.4h-25.6v230.4c0 40.96-20.48 76.8-51.2 102.4v153.6c0 71.68-56.32 128-128 128h-25.6v35.84c30.72 15.36 51.2 61.44 51.2 117.76 0 66.56-56.32 117.76-61.44 122.88-10.24 10.24-25.6 10.24-35.84 0 0 0-61.44-56.32-61.44-122.88 0-56.32 20.48-102.4 51.2-122.88v-30.72h-179.2v35.84c30.72 15.36 51.2 61.44 51.2 122.88 0 66.56-56.32 117.76-61.44 122.88-10.24 10.24-25.6 10.24-35.84 0 0 0-61.44-56.32-61.44-122.88 0-56.32 20.48-102.4 51.2-122.88v-35.84h-168.96v35.84c30.72 15.36 51.2 61.44 51.2 117.76 0 66.56-56.32 117.76-61.44 122.88-10.24 10.24-25.6 10.24-35.84 0 0 0-56.32-51.2-56.32-122.88 0-56.32 20.48-102.4 51.2-122.88v-30.72h-25.6c-71.68 0-128-56.32-128-128v-153.6c-30.72-25.6-51.2-61.44-51.2-102.4v-230.4h-25.6c-15.36 0-25.6-10.24-25.6-25.6s10.24-25.6 25.6-25.6h307.2c15.36 0 25.6 10.24 25.6 25.6s-10.24 25.6-25.6 25.6h-230.4v148.48c25.6-5.12 46.080-20.48 66.56-40.96 25.6-25.6 61.44-56.32 122.88-56.32 66.56 0 97.28 30.72 128 56.32 25.6 25.6 46.080 46.080 92.16 46.080s66.56-20.48 92.16-46.080c30.72-25.6 61.44-56.32 128-56.32s97.28 30.72 128 56.32c20.48 20.48 35.84 35.84 66.56 40.96v-148.48h-384c-15.36 0-25.6-10.24-25.6-25.6s10.24-25.6 25.6-25.6h460.8c15.36 0 25.6 10.24 25.6 25.6s-15.36 25.6-30.72 25.6zM742.4 872.96c10.24-15.36 25.6-40.96 25.6-66.56 0-51.2-20.48-76.8-25.6-76.8s-25.6 30.72-25.6 76.8c0 25.6 15.36 51.2 25.6 66.56zM512 872.96c10.24-15.36 25.6-40.96 25.6-66.56 0-51.2-20.48-76.8-25.6-76.8s-25.6 30.72-25.6 76.8c0 25.6 15.36 51.2 25.6 66.56zM281.6 872.96c10.24-15.36 25.6-40.96 25.6-66.56 0-51.2-20.48-76.8-25.6-76.8s-25.6 30.72-25.6 76.8c0 25.6 15.36 51.2 25.6 66.56zM921.6 243.2c-46.080-10.24-76.8-35.84-102.4-56.32-25.6-25.6-46.080-46.080-92.16-46.080s-66.56 20.48-92.16 46.080-56.32 56.32-122.88 56.32-97.28-30.72-128-56.32c-25.6-25.6-46.080-46.080-92.16-46.080s-66.56 20.48-92.16 46.080-51.2 51.2-102.4 56.32v25.6c5.12 40.96 40.96 76.8 81.92 76.8h204.8c15.36 0 25.6 10.24 25.6 25.6s-10.24 25.6-25.6 25.6h-204.8c-10.24 0-15.36 0-25.6-5.12v133.12c0 40.96 35.84 76.8 76.8 76.8h563.2c40.96 0 76.8-35.84 76.8-76.8v-133.12c-10.24 0-15.36 5.12-25.6 5.12h-256c-15.36 0-25.6-10.24-25.6-25.6s10.24-25.6 25.6-25.6h256c40.96 0 76.8-35.84 76.8-76.8v-25.6zM358.4 268.8c0-14.138-11.462-25.6-25.6-25.6s-25.6 11.462-25.6 25.6c0 14.138 11.462 25.6 25.6 25.6s25.6-11.462 25.6-25.6zM563.2 115.2c0-14.138-11.462-25.6-25.6-25.6s-25.6 11.462-25.6 25.6c0 14.138 11.462 25.6 25.6 25.6s25.6-11.462 25.6-25.6zM460.8 12.8c0-14.138-11.462-25.6-25.6-25.6s-25.6 11.462-25.6 25.6c0 14.138 11.462 25.6 25.6 25.6s25.6-11.462 25.6-25.6zM512 371.2c0-14.138-11.462-25.6-25.6-25.6s-25.6 11.462-25.6 25.6c0 14.138 11.462 25.6 25.6 25.6s25.6-11.462 25.6-25.6zM768 268.8c0-14.138-11.462-25.6-25.6-25.6s-25.6 11.462-25.6 25.6c0 14.138 11.462 25.6 25.6 25.6s25.6-11.462 25.6-25.6zM256 524.8c0-14.138-11.462-25.6-25.6-25.6s-25.6 11.462-25.6 25.6c0 14.138 11.462 25.6 25.6 25.6s25.6-11.462 25.6-25.6zM819.2 524.8c0-14.138-11.462-25.6-25.6-25.6s-25.6 11.462-25.6 25.6c0 14.138 11.462 25.6 25.6 25.6s25.6-11.462 25.6-25.6zM512 524.8c0-14.138-11.462-25.6-25.6-25.6s-25.6 11.462-25.6 25.6c0 14.138 11.462 25.6 25.6 25.6s25.6-11.462 25.6-25.6zM665.6 473.6c0-14.138-11.462-25.6-25.6-25.6s-25.6 11.462-25.6 25.6c0 14.138 11.462 25.6 25.6 25.6s25.6-11.462 25.6-25.6zM358.4 473.6c0-14.138-11.462-25.6-25.6-25.6s-25.6 11.462-25.6 25.6c0 14.138 11.462 25.6 25.6 25.6s25.6-11.462 25.6-25.6zM204.8 268.8c0-14.138-11.462-25.6-25.6-25.6s-25.6 11.462-25.6 25.6c0 14.138 11.462 25.6 25.6 25.6s25.6-11.462 25.6-25.6z" />
<glyph unicode="&#xe915;" glyph-name="bitcoin" d="M686.933 533.333c0 46.933-38.4 85.333-85.333 85.333h-42.667v64c0 12.8-8.533 21.333-21.333 21.333s-21.333-8.533-21.333-21.333v-64h-42.667v64c0 12.8-8.533 21.333-21.333 21.333s-21.333-8.533-21.333-21.333v-64h-64c-12.8 0-21.333-8.533-21.333-21.333v-256c0-12.8 8.533-21.333 21.333-21.333h64v-64c0-12.8 8.533-21.333 21.333-21.333s21.333 8.533 21.333 21.333v64h42.667v-64c0-12.8 8.533-21.333 21.333-21.333 8.533 0 21.333 8.533 21.333 21.333v64h42.667c42.667 0 81.067 38.4 85.333 85.333 0 25.6-12.8 46.933-29.867 64 17.067 17.067 29.867 38.4 29.867 64zM644.267 405.333c0-25.6-21.333-42.667-42.667-42.667h-213.333v85.333h213.333c25.6 0 42.667-17.067 42.667-42.667zM388.267 490.667v85.333h213.333c25.6 0 42.667-17.067 42.667-42.667s-21.333-42.667-42.667-42.667h-213.333zM904.533 435.2c-12.8 0-21.333-8.533-25.6-21.333-29.867-170.667-179.2-298.667-354.133-298.667-196.267 0-358.4 162.133-358.4 358.4s162.133 358.4 358.4 358.4c123.733 0 243.2-68.267 307.2-179.2 8.533-12.8 21.333-17.067 34.133-8.533s17.067 21.333 8.533 34.133c-72.533 123.733-204.8 200.533-349.867 200.533-221.867 0-405.333-183.467-405.333-409.6s183.467-409.6 405.333-409.6c200.533 0 366.933 145.067 401.067 349.867 0 12.8-8.533 21.333-21.333 25.6zM913.067 533.333c0-11.782-9.551-21.333-21.333-21.333s-21.333 9.551-21.333 21.333c0 11.782 9.551 21.333 21.333 21.333s21.333-9.551 21.333-21.333z" />
<glyph unicode="&#xe916;" glyph-name="blankpage" d="M874.667 874.667h-725.333c-59.733 0-106.667-46.933-106.667-106.667v-640c0-59.733 46.933-106.667 106.667-106.667h725.333c59.733 0 106.667 46.933 106.667 106.667v640c0 59.733-46.933 106.667-106.667 106.667zM149.333 832h725.333c34.133 0 64-29.867 64-64v-106.667h-853.333v106.667c0 34.133 29.867 64 64 64zM874.667 64h-725.333c-34.133 0-64 29.867-64 64v490.667h853.333v-490.667c0-34.133-29.867-64-64-64zM213.333 746.667c0-23.564-19.103-42.667-42.667-42.667s-42.667 19.103-42.667 42.667c0 23.564 19.103 42.667 42.667 42.667s42.667-19.103 42.667-42.667zM341.333 746.667c0-23.564-19.103-42.667-42.667-42.667s-42.667 19.103-42.667 42.667c0 23.564 19.103 42.667 42.667 42.667s42.667-19.103 42.667-42.667zM469.333 746.667c0-23.564-19.103-42.667-42.667-42.667s-42.667 19.103-42.667 42.667c0 23.564 19.103 42.667 42.667 42.667s42.667-19.103 42.667-42.667z" />
<glyph unicode="&#xe917;" glyph-name="breadcrumb" d="M563.2 448l-294.4 341.333h-157.867c-42.667 0-81.067-34.133-81.067-81.067v-520.533c0-42.667 38.4-81.067 81.067-81.067h221.867l230.4 341.333zM725.333 789.333h-294.4l290.133-341.333-234.667-341.333h277.333l217.6 302.933c17.067 21.333 12.8 51.2-4.267 72.533l-251.733 307.2z" />
<glyph unicode="&#xe918;" glyph-name="burger" d="M682.667 640c0-11.782-9.551-21.333-21.333-21.333s-21.333 9.551-21.333 21.333c0 11.782 9.551 21.333 21.333 21.333s21.333-9.551 21.333-21.333zM213.333 469.333c0-11.782-9.551-21.333-21.333-21.333s-21.333 9.551-21.333 21.333c0 11.782 9.551 21.333 21.333 21.333s21.333-9.551 21.333-21.333zM853.333 213.333c0-11.782-9.551-21.333-21.333-21.333s-21.333 9.551-21.333 21.333c0 11.782 9.551 21.333 21.333 21.333s21.333-9.551 21.333-21.333zM298.667 341.333c0-11.782-19.103-21.333-42.667-21.333s-42.667 9.551-42.667 21.333c0 11.782 19.103 21.333 42.667 21.333s42.667-9.551 42.667-21.333zM469.333 384c0-11.782-19.103-21.333-42.667-21.333s-42.667 9.551-42.667 21.333c0 11.782 19.103 21.333 42.667 21.333s42.667-9.551 42.667-21.333zM213.333 298.667c0-11.782-19.103-21.333-42.667-21.333s-42.667 9.551-42.667 21.333c0 11.782 19.103 21.333 42.667 21.333s42.667-9.551 42.667-21.333zM426.667 298.667c0-11.782-19.103-21.333-42.667-21.333s-42.667 9.551-42.667 21.333c0 11.782 19.103 21.333 42.667 21.333s42.667-9.551 42.667-21.333zM341.333 426.667c0-11.782-19.103-21.333-42.667-21.333s-42.667 9.551-42.667 21.333c0 11.782 19.103 21.333 42.667 21.333s42.667-9.551 42.667-21.333zM554.667 298.667c0-11.782-19.103-21.333-42.667-21.333s-42.667 9.551-42.667 21.333c0 11.782 19.103 21.333 42.667 21.333s42.667-9.551 42.667-21.333zM977.067 648.533c-8.533 12.8-12.8 25.6-21.333 42.667-4.267 8.533-8.533 21.333-12.8 29.867s-8.533 21.333-12.8 25.6c-8.533 4.267-25.6 0-38.4 0s-21.333 0-34.133 0c-29.867 0-59.733 0-89.6 0-42.667 0-85.333 0-128 0 0 0 0 106.667 0 106.667 0 12.8-8.533 21.333-21.333 21.333h-170.667c-12.8 0-21.333-8.533-21.333-21.333s8.533-21.333 21.333-21.333h149.333c0 0 0-85.333 0-85.333-46.933 0-89.6 0-136.533 0-12.8 0-25.6 0-38.4 0-8.533 0-25.6 4.267-29.867-4.267-8.533-4.267-8.533-21.333-12.8-25.6-4.267-12.8-8.533-21.333-17.067-29.867-4.267-12.8-12.8-25.6-17.067-38.4-4.267-4.267-4.267-17.067 0-21.333s8.533-8.533 17.067-8.533h25.6l25.6-102.4c0 0 0 0 0-4.267s0-4.267 0-8.533c-29.867 8.533-59.733 12.8-89.6 12.8s-55.467-4.267-85.333-8.533c-12.8-4.267-21.333-12.8-17.067-25.6s12.8-21.333 25.6-17.067c25.6 4.267 51.2 8.533 76.8 8.533s46.933-4.267 72.533-8.533c12.8-4.267 21.333-4.267 34.133-8.533 42.667-17.067 81.067-34.133 110.933-64 25.6-25.6 46.933-64 51.2-102.4 0-4.267 0-8.533 0-8.533 0-8.533 0-12.8 0-21.333h-524.8c0 8.533 0 12.8 0 21.333 0 55.467 29.867 106.667 81.067 140.8 8.533 8.533 12.8 21.333 4.267 29.867s-21.333 12.8-29.867 4.267c-64-42.667-102.4-106.667-102.4-174.933 0-12.8 4.267-25.6 4.267-38.4-12.8-8.533-25.6-25.6-25.6-46.933 0-12.8 4.267-21.333 12.8-34.133 4.267-8.533 8.533-17.067 17.067-21.333 4.267-4.267 8.533-4.267 8.533-8.533s-4.267-8.533-4.267-12.8c0 0 0-59.733 0-59.733 0-34.133 29.867-64 64-64h448c4.267 0 4.267 0 8.533 0 0-12.8 8.533-21.333 21.333-21.333h213.333c8.533 0 17.067 8.533 21.333 17.067 0 0 25.6 128 25.6 128 4.267 17.067-12.8 25.6-25.6 25.6 0 0-4.267 0-4.267 0-59.733 0-115.2 0-174.933 0 0 0 0 4.267 0 4.267 12.8 12.8 17.067 25.6 17.067 46.933 0 17.067-8.533 34.133-21.333 46.933 4.267 12.8 4.267 21.333 4.267 34.133 0 8.533 0 21.333-4.267 29.867h200.533c0 0-4.267-17.067-4.267-17.067 0-12.8 4.267-21.333 17.067-25.6 12.8 0 21.333 8.533 25.6 17.067l68.267 337.067h25.6c8.533 0 12.8 4.267 17.067 8.533 4.267 8.533 4.267 12.8 0 21.333zM140.8 213.333c0 0 0 0 0 0-4.267-21.333-25.6-38.4-55.467-38.4-4.267 0-8.533 0-12.8 0s-4.267 0-8.533 0c0 0-4.267 0-4.267 0-8.533 4.267-17.067 12.8-17.067 21.333 0 17.067 17.067 17.067 17.067 17.067h81.067zM584.533 217.6c4.267 0 8.533 0 12.8-4.267 12.8-4.267 17.067-21.333 4.267-34.133-8.533-8.533-21.333-8.533-34.133-8.533-25.6 0-51.2 17.067-55.467 42.667 0 0 59.733 0 64 0 4.267 4.267 8.533 4.267 8.533 4.267zM409.6 174.933c-29.867 0-51.2 17.067-55.467 42.667h115.2c-8.533-25.6-29.867-42.667-59.733-42.667zM243.2 170.667c-29.867 0-51.2 21.333-59.733 42.667 0 0 0 0 0 0h115.2c0-25.6-25.6-42.667-55.467-42.667zM162.133 170.667c8.533-12.8 21.333-21.333 34.133-25.6h-64c12.8 4.267 21.333 12.8 29.867 25.6zM328.533 170.667c8.533-12.8 21.333-21.333 34.133-25.6h-68.267c12.8 4.267 25.6 12.8 34.133 25.6zM490.667 170.667c8.533-12.8 21.333-21.333 38.4-29.867h-76.8c17.067 8.533 29.867 17.067 38.4 29.867zM98.133 42.667c-12.8 0-21.333 8.533-21.333 21.333v38.4h490.667v-38.4c0-12.8-8.533-21.333-21.333-21.333h-448zM593.067 21.333c8.533 12.8 17.067 25.6 17.067 42.667v42.667c4.267 0 4.267 0 8.533 0h170.667l-17.067-85.333h-179.2zM840.533 354.133c-4.267 0-4.267 0-8.533 0h-217.6c-25.6 59.733-81.067 106.667-149.333 136.533v0h401.067l-25.6-136.533zM874.667 533.333h-418.133l-21.333 85.333h119.467c12.8 0 21.333 8.533 21.333 21.333s-8.533 21.333-21.333 21.333c-51.2 0-106.667 0-157.867 0 0 0 21.333 42.667 21.333 42.667h486.4l21.333-42.667h-157.867c-12.8 0-21.333-8.533-21.333-21.333s8.533-21.333 21.333-21.333h123.733l-17.067-85.333z" />
<glyph unicode="&#xe919;" glyph-name="button" d="M866.133 251.733h-704c-64 0-115.2 51.2-115.2 115.2v230.4c-4.267 64 51.2 119.467 115.2 119.467h704c64 0 115.2-55.467 115.2-119.467v-230.4c0-64-51.2-115.2-115.2-115.2z" />
<glyph unicode="&#xe91a;" glyph-name="calendar" d="M981.333 870.4h-76.8c-17.067 0-34.133-12.8-34.133-34.133s12.8-34.133 34.133-34.133h46.933v-170.667h-874.667v170.667h46.933c17.067 0 34.133 12.8 34.133 34.133s-21.333 34.133-38.4 34.133h-76.8c-17.067 0-34.133-12.8-34.133-34.133v-857.6c0-17.067 12.8-34.133 34.133-34.133h938.667c17.067 0 34.133 12.8 34.133 34.133v861.867c0 17.067-17.067 29.867-34.133 29.867zM76.8 8.533v563.2h874.667v-563.2h-874.667zM354.133 806.4h311.467c17.067 0 34.133 12.8 34.133 34.133s-12.8 34.133-34.133 34.133h-311.467c-17.067 0-34.133-12.8-34.133-34.133s17.067-34.133 34.133-34.133zM708.267 401.067h-430.933c-17.067 0-34.133-12.8-34.133-34.133s12.8-34.133 34.133-34.133h430.933c17.067 0 34.133 12.8 34.133 34.133s-17.067 34.133-34.133 34.133zM708.267 204.8h-430.933c-17.067 0-34.133-12.8-34.133-34.133s12.8-34.133 34.133-34.133h430.933c17.067 0 34.133 12.8 34.133 34.133s-17.067 34.133-34.133 34.133zM238.933 729.6c17.067 0 34.133 12.8 34.133 34.133v153.6c0 17.067-12.8 34.133-34.133 34.133s-34.133-17.067-34.133-34.133v-157.867c0-17.067 17.067-29.867 34.133-29.867zM785.067 729.6c17.067 0 34.133 12.8 34.133 34.133v153.6c0 17.067-12.8 34.133-34.133 34.133s-29.867-17.067-29.867-34.133v-157.867c0-17.067 12.8-29.867 29.867-29.867z" />
<glyph unicode="&#xe91b;" glyph-name="calendar-new" d="M844.8 857.6h-25.6v102.4h-153.6v-102.4h-307.2v102.4h-153.6v-102.4h-25.6c-71.68 0-128-56.32-128-128v-665.6c0-71.68 56.32-128 128-128h665.6c71.68 0 128 56.32 128 128v665.6c0 71.68-56.32 128-128 128zM844.8-12.8h-665.6c-40.96 0-76.8 35.84-76.8 76.8v486.4h819.2v-486.4c0-40.96-35.84-76.8-76.8-76.8zM512 294.4h204.8v-204.8h-204.8v204.8z" />
<glyph unicode="&#xe91c;" glyph-name="callout" d="M512 840.533h392.533v-392.533h-392.533v392.533zM119.467 448h392.533v-392.533h-392.533v392.533zM396.8 614.4c17.067 0 29.867 12.8 29.867 29.867s-12.8 29.867-29.867 29.867h-277.333c-12.8 0-29.867-12.8-29.867-29.867s12.8-29.867 29.867-29.867h277.333zM904.533 281.6h-273.067c-17.067 0-29.867-12.8-29.867-29.867s12.8-29.867 29.867-29.867h273.067c17.067 0 29.867 12.8 29.867 29.867s-17.067 29.867-29.867 29.867z" />
<glyph unicode="&#xe91d;" glyph-name="camera" d="M857.6 106.667h-691.2c-59.733 0-110.933 51.2-110.933 110.933v430.933c0 59.733 51.2 110.933 110.933 110.933h115.2l81.067 81.067c4.267 4.267 12.8 8.533 21.333 8.533h256c8.533 0 17.067-4.267 21.333-8.533l76.8-76.8h123.733c59.733 0 110.933-51.2 110.933-110.933v-430.933c0-64-51.2-115.2-115.2-115.2zM166.4 695.467c-25.6 0-46.933-21.333-46.933-46.933v-430.933c0-25.6 21.333-46.933 46.933-46.933h695.467c25.6 0 46.933 21.333 46.933 46.933v430.933c0 25.6-21.333 46.933-46.933 46.933h-136.533c-8.533 0-17.067 4.267-21.333 8.533l-76.8 76.8h-230.4l-81.067-72.533c-4.267-8.533-12.8-12.8-21.333-12.8h-128zM512 238.933c-110.933 0-200.533 89.6-200.533 200.533s89.6 200.533 200.533 200.533c110.933 0 200.533-89.6 200.533-200.533s-89.6-200.533-200.533-200.533zM512 576c-76.8 0-136.533-59.733-136.533-136.533s59.733-136.533 136.533-136.533c76.8 0 136.533 59.733 136.533 136.533s-59.733 136.533-136.533 136.533zM810.667 601.6c0-23.564-19.103-42.667-42.667-42.667s-42.667 19.103-42.667 42.667c0 23.564 19.103 42.667 42.667 42.667s42.667-19.103 42.667-42.667z" />
<glyph unicode="&#xe91e;" glyph-name="camera-2" d="M682.667 128c0-11.782-9.551-21.333-21.333-21.333s-21.333 9.551-21.333 21.333c0 11.782 9.551 21.333 21.333 21.333s21.333-9.551 21.333-21.333zM384 597.333c0-11.782-9.551-21.333-21.333-21.333s-21.333 9.551-21.333 21.333c0 11.782 9.551 21.333 21.333 21.333s21.333-9.551 21.333-21.333zM896 789.333c-8.533 51.2-51.2 85.333-106.667 85.333h-128c-51.2 0-93.867-34.133-106.667-85.333h-256c0 46.933-38.4 85.333-85.333 85.333s-85.333-38.4-85.333-85.333v0c-51.2-12.8-85.333-55.467-85.333-106.667v-469.333c0-59.733 46.933-106.667 106.667-106.667h384c12.8 0 21.333 8.533 21.333 21.333s-8.533 21.333-21.333 21.333h-384c-34.133 0-64 29.867-64 64v469.333c0 34.133 29.867 64 64 64h725.333c34.133 0 64-29.867 64-64v-469.333c0-34.133-29.867-64-64-64h-85.333c-12.8 0-21.333-8.533-21.333-21.333s8.533-21.333 21.333-21.333h85.333c59.733 0 106.667 46.933 106.667 106.667v469.333c0 51.2-38.4 93.867-85.333 106.667zM213.333 832c25.6 0 42.667-17.067 42.667-42.667h-85.333c0 25.6 17.067 42.667 42.667 42.667zM661.333 832h128c25.6 0 51.2-17.067 59.733-42.667h-247.467c8.533 25.6 34.133 42.667 59.733 42.667zM512 678.4c-25.6 0-51.2-4.267-76.8-12.8-12.8-4.267-17.067-12.8-12.8-25.6s12.8-17.067 25.6-12.8c21.333 4.267 42.667 8.533 64 8.533 106.667 0 192-85.333 192-192s-85.333-192-192-192-192 85.333-192 192c0 25.6 4.267 51.2 12.8 72.533 4.267 12.8 0 25.6-12.8 29.867-8.533 4.267-21.333 0-25.6-8.533-12.8-29.867-17.067-59.733-17.067-89.6 0-128 106.667-234.667 234.667-234.667s234.667 106.667 234.667 230.4c0 128-106.667 234.667-234.667 234.667zM512 320c72.533 0 128 55.467 128 128s-55.467 128-128 128-128-55.467-128-128 55.467-128 128-128zM512 533.333c46.933 0 85.333-38.4 85.333-85.333s-38.4-85.333-85.333-85.333-85.333 38.4-85.333 85.333 38.4 85.333 85.333 85.333z" />
<glyph unicode="&#xe91f;" glyph-name="card" d="M904.533 832h-785.067c-59.733 0-106.667-51.2-106.667-110.933v-546.133c0-59.733 51.2-110.933 110.933-110.933h780.8c59.733 0 110.933 51.2 110.933 110.933v546.133c0 59.733-51.2 110.933-110.933 110.933zM119.467 768h780.8c25.6 0 46.933-21.333 46.933-46.933v-204.8h-870.4v204.8c0 25.6 17.067 46.933 42.667 46.933zM904.533 128h-785.067c-25.6 0-46.933 21.333-46.933 46.933v281.6h874.667v-281.6c4.267-25.6-17.067-46.933-42.667-46.933zM238.933 610.133h234.667c17.067 0 34.133 12.8 34.133 34.133s-12.8 34.133-34.133 34.133h-234.667c-17.067-4.267-34.133-17.067-34.133-34.133s17.067-34.133 34.133-34.133zM785.067 324.267h-546.133c-17.067 0-34.133-12.8-34.133-34.133s12.8-34.133 34.133-34.133h546.133c17.067 0 34.133 12.8 34.133 34.133s-17.067 34.133-34.133 34.133z" />
<glyph unicode="&#xe920;" glyph-name="cards-list-view" d="M315.733 448c0-42.415-34.385-76.8-76.8-76.8s-76.8 34.385-76.8 76.8c0 42.415 34.385 76.8 76.8 76.8s76.8-34.385 76.8-76.8zM823.467 469.333h-392.533c-17.067 0-29.867-12.8-29.867-29.867s12.8-29.867 29.867-29.867h392.533c17.067 0 29.867 12.8 29.867 29.867s-12.8 29.867-29.867 29.867zM904.533 729.6h-785.067c-59.733 0-106.667-46.933-106.667-106.667v-354.133c0-59.733 46.933-106.667 106.667-106.667h780.8c59.733 0 106.667 46.933 106.667 106.667v354.133c4.267 59.733-42.667 106.667-102.4 106.667zM951.467 273.067c0-25.6-21.333-46.933-46.933-46.933h-785.067c-25.6 0-46.933 21.333-46.933 46.933v349.867c0 25.6 21.333 46.933 46.933 46.933h780.8c25.6 0 46.933-21.333 46.933-46.933v-349.867z" />
<glyph unicode="&#xe921;" glyph-name="carousel" d="M277.333 243.2h-234.667c-17.067 0-34.133-12.8-34.133-34.133s12.8-34.133 34.133-34.133h234.667c17.067 0 34.133 12.8 34.133 34.133s-17.067 34.133-34.133 34.133zM981.333 243.2h-234.667c-17.067 0-34.133-12.8-34.133-34.133s12.8-34.133 34.133-34.133h234.667c17.067 0 34.133 12.8 34.133 34.133s-17.067 34.133-34.133 34.133zM631.467 243.2h-234.667c-17.067 0-34.133-12.8-34.133-34.133s12.8-34.133 34.133-34.133h234.667c17.067 0 34.133 12.8 34.133 34.133s-17.067 34.133-34.133 34.133zM413.867 614.4c4.267 0 4.267 0 8.533 0 0 4.267 4.267 4.267 4.267 4.267 8.533 8.533 21.333 12.8 29.867 17.067s21.333 4.267 34.133 4.267c12.8 0 25.6-4.267 29.867-8.533 8.533-8.533 12.8-17.067 12.8-29.867 0-8.533-4.267-21.333-8.533-29.867s-12.8-21.333-25.6-34.133l-89.6-89.6c-4.267-4.267-8.533-12.8-8.533-21.333 0-4.267 0-12.8 4.267-12.8 4.267-4.267 8.533-8.533 17.067-8.533h157.867c17.067 0 25.6 8.533 25.6 21.333s-8.533 21.333-25.6 21.333h-110.933l72.533 72.533c17.067 17.067 29.867 34.133 34.133 46.933 8.533 12.8 8.533 29.867 8.533 42.667 0 21.333-8.533 42.667-25.6 55.467s-38.4 21.333-68.267 21.333c-17.067 0-34.133-4.267-46.933-8.533-17.067-4.267-29.867-12.8-42.667-21.333 0-8.533-4.267-8.533-4.267-12.8s-4.267-4.267-4.267-8.533c0-4.267 0-8.533 4.267-12.8 4.267-8.533 8.533-8.533 17.067-8.533z" />
<glyph unicode="&#xe922;" glyph-name="cascader" d="M896 426.667c-64 0-115.2-46.933-123.733-106.667h-217.6c-8.533 59.733-64 106.667-123.733 106.667s-119.467-46.933-128-106.667h-89.6c-29.867 0-51.2 25.6-51.2 51.2v98.133c55.467 17.067 93.867 68.267 93.867 128 0 72.533-55.467 128-128 128s-128-55.467-128-128c0-59.733 42.667-110.933 93.867-123.733v-98.133c0-64 51.2-115.2 115.2-115.2h93.867c17.067-51.2 64-85.333 119.467-85.333s102.4 34.133 119.467 85.333h230.4c17.067-51.2 64-85.333 119.467-85.333 72.533 0 128 55.467 128 128s-55.467 123.733-123.733 123.733zM55.467 597.333c0 42.667 34.133 72.533 72.533 72.533s72.533-34.133 72.533-72.533-29.867-76.8-72.533-76.8-72.533 34.133-72.533 76.8zM426.667 226.133c-42.667 0-72.533 34.133-72.533 72.533 0 42.667 34.133 72.533 72.533 72.533s72.533-34.133 72.533-72.533c4.267-42.667-29.867-72.533-72.533-72.533zM896 226.133c-42.667 0-72.533 34.133-72.533 72.533 0 42.667 34.133 72.533 72.533 72.533 42.667 0 72.533-34.133 72.533-72.533 0-42.667-34.133-72.533-72.533-72.533z" />
<glyph unicode="&#xe923;" glyph-name="chart" d="M994.133-64h-925.867c-38.4 0-68.267 29.867-68.267 68.267v925.867c0 17.067 12.8 29.867 29.867 29.867s29.867-12.8 29.867-29.867v-921.6c0-4.267 4.267-8.533 8.533-8.533h921.6c17.067 0 29.867-12.8 29.867-29.867s-8.533-34.133-25.6-34.133zM273.067 174.933c-17.067 0-29.867 12.8-29.867 29.867v162.133c0 17.067 12.8 29.867 29.867 29.867s29.867-12.8 29.867-29.867v-162.133c0-12.8-17.067-29.867-29.867-29.867zM512 174.933c-17.067 0-29.867 12.8-29.867 29.867v320c0 17.067 12.8 29.867 29.867 29.867s29.867-12.8 29.867-29.867v-320c0-12.8-12.8-29.867-29.867-29.867zM750.933 174.933c-17.067 0-29.867 12.8-29.867 29.867v482.133c0 17.067 12.8 29.867 29.867 29.867s29.867-12.8 29.867-29.867v-482.133c4.267-12.8-12.8-29.867-29.867-29.867z" />
<glyph unicode="&#xe924;" glyph-name="chart-area" d="M1002.667 563.2c0 4.267 0 4.267 0 4.267s0 4.267-4.267 4.267c0 0 0 0 0 4.267 0 0 0 0-4.267 4.267 0 0-4.267 4.267-4.267 4.267s-4.267 4.267-4.267 4.267c0 0-4.267 0-4.267 4.267 0 0-4.267 0-4.267 0s-4.267 0-4.267 0c0 0 0 0-4.267 0 0 0-4.267 0-4.267 0s-4.267 0-4.267-4.267c0 0 0 0-4.267 0l-153.6-98.133-98.133 200.533c-4.267 8.533-12.8 17.067-25.6 17.067-8.533 0-21.333 0-29.867-8.533l-285.867-285.867-93.867 93.867c-8.533 8.533-17.067 8.533-25.6 8.533s-17.067-4.267-21.333-12.8l-145.067-192v597.333c0 17.067-12.8 34.133-34.133 34.133s-29.867-17.067-29.867-34.133v-930.133c0-17.067 12.8-34.133 34.133-34.133h930.133c17.067 0 34.133 12.8 34.133 34.133l-8.533 584.533c0-4.267 0-4.267 0 0zM247.467 430.933l93.867-89.6c12.8-12.8 34.133-12.8 46.933 0l277.333 277.333 98.133-192c4.267-8.533 12.8-12.8 21.333-17.067s17.067 0 25.6 4.267l136.533 85.333v-200.533l-140.8-89.6-153.6 230.4-230.4-311.467-166.4 119.467-179.2-238.933v192l170.667 230.4z" />
<glyph unicode="&#xe925;" glyph-name="chart-area-new" d="M981.333 8.533h-908.8v537.6l264.533-200.533c12.8-8.533 25.6-8.533 38.4 0l174.933 162.133 418.133-243.2c4.267-4.267 8.533-4.267 12.8-4.267 8.533 0 21.333 4.267 25.6 12.8 8.533 12.8 4.267 29.867-8.533 38.4l-435.2 256c-12.8 8.533-25.6 8.533-38.4 0l-170.667-162.133-281.6 213.333v298.667c0 17.067-12.8 29.867-29.867 29.867s-29.867-12.8-29.867-29.867v-938.667c0-17.067 12.8-29.867 29.867-29.867h938.667c17.067 0 29.867 12.8 29.867 29.867s-12.8 29.867-29.867 29.867z" />
<glyph unicode="&#xe926;" glyph-name="chart-bar" d="M985.6 8.533h-908.8v136.533h409.6c21.333 0 38.4 17.067 38.4 38.4s-17.067 38.4-38.4 38.4h-409.6v85.333h861.867c21.333 0 38.4 17.067 38.4 38.4s-17.067 38.4-38.4 38.4h-861.867v153.6h409.6c21.333 0 38.4 17.067 38.4 38.4s-17.067 38.4-38.4 38.4h-409.6v85.333h861.867c21.333 0 38.4 17.067 38.4 38.4s-17.067 34.133-38.4 34.133h-861.867v145.067c0 17.067-12.8 29.867-29.867 29.867s-29.867-12.8-29.867-29.867v-938.667c0-17.067 12.8-29.867 29.867-29.867h938.667c17.067 0 29.867 12.8 29.867 29.867s-12.8 29.867-29.867 29.867z" />
<glyph unicode="&#xe927;" glyph-name="chart-composed" d="M849.067 119.467c81.067 85.333 132.267 200.533 132.267 328.533s-51.2 243.2-136.533 328.533c0 0 0 4.267-4.267 4.267 0 0 0 0-4.267 0-81.067 85.333-196.267 136.533-324.267 136.533s-247.467-51.2-328.533-136.533c0 0 0 0 0 0s0 0 0 0c-89.6-85.333-140.8-204.8-140.8-332.8s51.2-243.2 136.533-328.533c0 0 0-4.267 4.267-4.267 0 0 4.267 0 4.267-4.267 81.067-81.067 196.267-132.267 324.267-132.267s243.2 51.2 328.533 132.267c0 0 4.267 0 4.267 4.267 0 0 0 4.267 4.267 4.267zM823.467 174.933l-51.2 51.2c46.933 59.733 81.067 136.533 81.067 221.867s-29.867 162.133-81.067 217.6l51.2 51.2c64-72.533 102.4-166.4 102.4-273.067 0-98.133-38.4-196.267-102.4-268.8zM435.2 448c0 42.667 34.133 76.8 76.8 76.8s76.8-34.133 76.8-76.8-34.133-76.8-76.8-76.8-76.8 34.133-76.8 76.8zM584.533 558.933c-21.333 12.8-46.933 21.333-72.533 21.333s-51.2-8.533-72.533-21.333l-106.667 110.933c51.2 42.667 110.933 64 179.2 64s132.267-25.6 179.2-64l-106.667-110.933zM401.067 520.533c-12.8-21.333-21.333-46.933-21.333-72.533s8.533-51.2 21.333-72.533l-106.667-106.667c-42.667 51.2-64 110.933-64 179.2s25.6 132.267 64 179.2l106.667-106.667zM439.467 337.067c21.333-12.8 46.933-21.333 72.533-21.333s51.2 8.533 72.533 21.333l106.667-106.667c-51.2-38.4-110.933-64-179.2-64s-132.267 25.6-179.2 64l106.667 106.667zM622.933 375.467c12.8 21.333 21.333 46.933 21.333 72.533s-8.533 51.2-21.333 72.533l106.667 106.667c38.4-51.2 64-110.933 64-179.2s-25.6-132.267-64-179.2l-106.667 106.667zM785.067 759.467l-51.2-51.2c-59.733 46.933-136.533 81.067-221.867 81.067s-162.133-29.867-221.867-81.067l-51.2 51.2c72.533 64 170.667 102.4 273.067 102.4s200.533-38.4 273.067-102.4zM200.533 721.067l51.2-51.2c-46.933-59.733-81.067-136.533-81.067-221.867s29.867-162.133 81.067-221.867l-51.2-51.2c-64 72.533-102.4 166.4-102.4 273.067 0 102.4 38.4 200.533 102.4 273.067zM238.933 136.533l51.2 51.2c59.733-51.2 136.533-81.067 221.867-81.067s162.133 29.867 221.867 81.067l51.2-51.2c-72.533-64-166.4-102.4-273.067-102.4-102.4 0-200.533 38.4-273.067 102.4z" />
<glyph unicode="&#xe928;" glyph-name="chart-line" d="M981.333 8.533h-891.733l110.933 217.6 119.467-102.4c4.267-4.267 12.8-8.533 21.333-8.533s17.067 4.267 21.333 12.8l285.867 358.4 98.133-106.667c4.267-4.267 12.8-8.533 21.333-8.533s17.067 4.267 21.333 12.8l213.333 260.267c8.533 12.8 8.533 29.867-4.267 42.667-12.8 8.533-29.867 8.533-42.667-4.267l-187.733-234.667-98.133 106.667c-4.267 4.267-12.8 8.533-21.333 8.533s-17.067-4.267-21.333-12.8l-290.133-362.667-123.733 106.667c-8.533 4.267-17.067 8.533-25.6 8.533s-17.067-8.533-21.333-17.067l-93.867-187.733v819.2c0 17.067-12.8 29.867-29.867 29.867s-29.867-12.8-29.867-29.867v-938.667c0 0 0-4.267 0-4.267s0-4.267 0-4.267c0 0 0-4.267 4.267-4.267 0 0 0-4.267 4.267-4.267 0 0 4.267-4.267 4.267-4.267s0 0 4.267-4.267c0 0 0 0 0 0 4.267 0 8.533-4.267 12.8-4.267 0 0 0 0 0 0s0 0 0 0 0 0 0 0h938.667c17.067 0 29.867 12.8 29.867 29.867s-12.8 29.867-29.867 29.867z" />
<glyph unicode="&#xe929;" glyph-name="chart-pie" d="M435.2 908.8c-221.867-34.133-392.533-230.4-392.533-460.8 0-260.267 209.067-469.333 469.333-469.333 230.4 0 426.667 170.667 460.8 392.533h-537.6v537.6zM512 917.333v-469.333h469.333c0 260.267-209.067 469.333-469.333 469.333z" />
<glyph unicode="&#xe92a;" glyph-name="chart-radar" d="M921.6 669.867c0 4.267 0 8.533-4.267 12.8 0 0 0 0 0 0-4.267 4.267-4.267 8.533-8.533 8.533 0 0 0 0 0 0l-384 221.867c0 0 0 0 0 0-4.267 4.267-8.533 4.267-12.8 4.267s-8.533 0-12.8-4.267c0 0 0 0 0 0l-384-221.867c0 0 0 0 0 0-4.267 0-8.533-4.267-8.533-8.533 0 0 0 0 0 0-4.267-4.267-4.267-8.533-4.267-12.8 0 0 0 0 0 0v-443.733c0 0 0 0 0 0 0-4.267 0-8.533 4.267-12.8 0 0 0 0 0 0v0c0 0 0 0 0 0 4.267-4.267 4.267-8.533 8.533-8.533v0l384-221.867c4.267-4.267 8.533-4.267 12.8-4.267s8.533 0 12.8 4.267l384 221.867c0 0 0 0 0 0v0c4.267 4.267 8.533 4.267 8.533 8.533 4.267 4.267 4.267 8.533 4.267 12.8 0 0 0 0 0 0v443.733c0 0 0 0 0 0zM157.867 622.933l145.067-85.333v-179.2l-145.067-85.333v349.867zM486.4 55.467l-298.667 174.933 145.067 85.333 153.6-89.6v-170.667zM486.4 285.867l-102.4 55.467 98.133 55.467v-110.933zM358.4 392.533v115.2l98.133-55.467-98.133-59.733zM486.4 494.933l-102.4 59.733 98.133 55.467v-115.2zM486.4 674.133l-153.6-89.6-145.067 85.333 298.667 174.933v-170.667zM537.6 840.533l298.667-174.933-145.067-85.333-153.6 89.6v170.667zM537.6 610.133l102.4-55.467-98.133-55.467v110.933zM665.6 503.467v-115.2l-98.133 59.733 98.133 55.467zM537.6 401.067l98.133-55.467-98.133-55.467v110.933zM537.6 55.467v170.667l153.6 89.6 145.067-85.333-298.667-174.933zM866.133 273.067l-145.067 85.333v179.2l145.067 85.333v-349.867z" />
<glyph unicode="&#xe92b;" glyph-name="chart-radial" d="M541.867 917.333v-460.8h439.467c-4.267 247.467-196.267 443.733-439.467 460.8zM861.867 136.533c64 72.533 106.667 162.133 119.467 260.267h-392.533l273.067-260.267zM482.133 917.333c-243.2-17.067-439.467-217.6-439.467-469.333 0-119.467 46.933-230.4 119.467-311.467l320 302.933v477.867zM204.8 93.867c81.067-72.533 187.733-115.2 307.2-115.2s226.133 42.667 307.2 115.2l-307.2 294.4-307.2-294.4z" />
<glyph unicode="&#xe92c;" glyph-name="chart-scatter" d="M981.333 8.533h-908.8v908.8c0 17.067-12.8 29.867-29.867 29.867s-29.867-12.8-29.867-29.867v-938.667c0-17.067 12.8-29.867 29.867-29.867h938.667c17.067 0 29.867 12.8 29.867 29.867s-12.8 29.867-29.867 29.867zM315.733 486.4c0-42.415-34.385-76.8-76.8-76.8s-76.8 34.385-76.8 76.8c0 42.415 34.385 76.8 76.8 76.8s76.8-34.385 76.8-76.8zM588.8 763.733c0-42.415-34.385-76.8-76.8-76.8s-76.8 34.385-76.8 76.8c0 42.415 34.385 76.8 76.8 76.8s76.8-34.385 76.8-76.8zM588.8 251.733c0-42.415-34.385-76.8-76.8-76.8s-76.8 34.385-76.8 76.8c0 42.415 34.385 76.8 76.8 76.8s76.8-34.385 76.8-76.8zM823.467 529.067c0-42.415-34.385-76.8-76.8-76.8s-76.8 34.385-76.8 76.8c0 42.415 34.385 76.8 76.8 76.8s76.8-34.385 76.8-76.8z" />
<glyph unicode="&#xe92d;" glyph-name="chart-tree" d="M695.467 337.067c-42.667 0-72.533-34.133-72.533-72.533 0-8.533 0-12.8 4.267-21.333l-85.333-68.267v260.267l119.467 98.133c8.533-4.267 21.333-8.533 34.133-8.533 42.667 0 72.533 34.133 72.533 72.533 0 42.667-34.133 72.533-72.533 72.533-42.667 0-72.533-34.133-72.533-72.533 0-8.533 0-12.8 4.267-21.333l-85.333-68.267v384c-4.267 12.8-17.067 25.6-29.867 25.6-17.067 0-25.6-12.8-25.6-25.6v-234.667l-85.333 68.267c4.267 8.533 4.267 17.067 4.267 21.333 0 42.667-34.133 72.533-72.533 72.533s-76.8-34.133-76.8-76.8c0-42.667 34.133-72.533 72.533-72.533 12.8 0 21.333 4.267 34.133 8.533l119.467-93.867v-260.267l-85.333 68.267c4.267 8.533 4.267 17.067 4.267 21.333 0 42.667-34.133 72.533-72.533 72.533s-72.533-34.133-72.533-72.533c0-42.667 34.133-72.533 72.533-72.533 12.8 0 21.333 4.267 34.133 8.533l119.467-93.867v-243.2c0-17.067 12.8-25.6 25.6-25.6 17.067 0 25.6 12.8 25.6 25.6v93.867l119.467 98.133c8.533-4.267 21.333-8.533 34.133-8.533 42.667 0 72.533 34.133 72.533 72.533 8.533 38.4-25.6 68.267-64 68.267z" />
<glyph unicode="&#xe92e;" glyph-name="charvlet-down" d="M512 243.2c-8.533 0-12.8 0-21.333 8.533l-456.533 341.333c-8.533 8.533-12.8 29.867-4.267 46.933 12.8 12.8 34.133 12.8 46.933 4.267l435.2-328.533 435.2 328.533c12.8 8.533 34.133 8.533 42.667-4.267s8.533-34.133-4.267-46.933l-456.533-341.333c-4.267-4.267-8.533-8.533-17.067-8.533z" />
<glyph unicode="&#xe92f;" glyph-name="charvlet-left" d="M311.467 448c0 8.533 0 12.8 8.533 21.333l341.333 456.533c8.533 12.8 29.867 17.067 46.933 4.267 12.8-8.533 17.067-29.867 4.267-46.933l-332.8-435.2 328.533-435.2c8.533-12.8 8.533-34.133-4.267-42.667s-34.133-8.533-46.933 4.267l-341.333 456.533c-4.267 4.267-4.267 8.533-4.267 17.067z" />
<glyph unicode="&#xe930;" glyph-name="charvlet-right" d="M712.533 448c0-8.533 0-12.8-8.533-21.333l-341.333-456.533c-8.533-12.8-29.867-17.067-46.933-4.267-12.8 8.533-17.067 29.867-4.267 46.933l332.8 435.2-328.533 435.2c-8.533 12.8-8.533 34.133 4.267 46.933 12.8 8.533 34.133 8.533 46.933-4.267l341.333-456.533c4.267-8.533 4.267-12.8 4.267-21.333z" />
<glyph unicode="&#xe931;" glyph-name="charvlet-up" d="M512 648.533c8.533 0 12.8 0 21.333-8.533l456.533-341.333c12.8-8.533 17.067-29.867 4.267-46.933-8.533-12.8-29.867-17.067-46.933-4.267l-435.2 332.8-435.2-328.533c-12.8-8.533-34.133-8.533-42.667 4.267s-8.533 34.133 4.267 46.933l456.533 341.333c4.267 4.267 8.533 4.267 17.067 4.267z" />
<glyph unicode="&#xe932;" glyph-name="chat" d="M913.067 921.6h-789.333c-59.733 0-110.933-51.2-110.933-110.933v-554.667c0-59.733 51.2-110.933 110.933-110.933h226.133v-166.4c0-12.8 8.533-21.333 17.067-29.867 4.267-4.267 8.533-4.267 12.8-4.267 8.533 0 12.8 0 17.067 4.267l268.8 192h247.467c59.733 0 110.933 51.2 110.933 110.933v554.667c0 64-51.2 115.2-110.933 115.2zM960 256c0-25.6-21.333-46.933-46.933-46.933h-256c-8.533 0-12.8 0-17.067-4.267l-226.133-162.133v136.533c0 17.067-12.8 34.133-34.133 34.133h-256c-25.6 0-46.933 21.333-46.933 46.933v554.667c0 25.6 21.333 46.933 46.933 46.933h789.333c25.6 0 46.933-21.333 46.933-46.933v-558.933zM785.067 721.067h-554.667c-17.067 0-29.867-12.8-29.867-29.867s12.8-34.133 29.867-34.133h554.667c17.067 0 34.133 12.8 34.133 34.133s-17.067 29.867-34.133 29.867zM785.067 563.2h-554.667c-17.067 0-29.867-12.8-29.867-29.867s12.8-34.133 34.133-34.133h554.667c17.067 0 34.133 12.8 34.133 34.133s-21.333 29.867-38.4 29.867zM785.067 405.333h-554.667c-17.067 0-34.133-12.8-34.133-34.133s12.8-34.133 34.133-34.133h554.667c17.067 0 34.133 12.8 34.133 34.133s-17.067 34.133-34.133 34.133z" />
<glyph unicode="&#xe933;" glyph-name="chat-bubble" d="M516.267 904.533c-273.067 0-494.933-170.667-494.933-379.733 0-128 81.067-247.467 221.867-315.733v-187.733c0-12.8 4.267-21.333 17.067-29.867 4.267-4.267 8.533-4.267 17.067-4.267 4.267 0 12.8 0 17.067 4.267l234.667 149.333c268.8 4.267 486.4 174.933 486.4 379.733 0 213.333-226.133 384-499.2 384zM516.267 209.067c-4.267 0-12.8 0-17.067-4.267l-192-123.733v145.067c0 12.8-8.533 25.6-17.067 29.867-128 59.733-204.8 157.867-204.8 268.8 0 174.933 192 315.733 430.933 315.733s430.933-140.8 430.933-315.733-192-315.733-430.933-315.733zM362.667 524.8c0-42.415-34.385-76.8-76.8-76.8s-76.8 34.385-76.8 76.8c0 42.415 34.385 76.8 76.8 76.8s76.8-34.385 76.8-76.8zM593.067 524.8c0-42.415-34.385-76.8-76.8-76.8s-76.8 34.385-76.8 76.8c0 42.415 34.385 76.8 76.8 76.8s76.8-34.385 76.8-76.8zM827.733 524.8c0-42.415-34.385-76.8-76.8-76.8s-76.8 34.385-76.8 76.8c0 42.415 34.385 76.8 76.8 76.8s76.8-34.385 76.8-76.8z" />
<glyph unicode="&#xe934;" glyph-name="chat-new" d="M430.933-21.333c-8.533 0-17.067 0-25.6 4.267-29.867 12.8-46.933 42.667-46.933 76.8v119.467h-243.2c-64 4.267-115.2 64-115.2 140.8v460.8c0 76.8 51.2 136.533 115.2 136.533h793.6c64 0 115.2-59.733 115.2-136.533v-460.8c0-72.533-51.2-136.533-115.2-136.533h-243.2l-187.733-183.467c-12.8-12.8-29.867-21.333-46.933-21.333zM115.2 853.333c-29.867 0-55.467-34.133-55.467-72.533v-460.8c0-38.4 25.6-72.533 51.2-72.533h277.333c17.067 0 29.867-12.8 29.867-34.133v-149.333c0-8.533 4.267-17.067 8.533-17.067 0 0 4.267 0 8.533 0l196.267 192c4.267 4.267 12.8 8.533 21.333 8.533h256c29.867 0 51.2 34.133 51.2 72.533v460.8c0 38.4-25.6 72.533-51.2 72.533h-793.6zM810.667 691.2h-610.133c-17.067 0-29.867 17.067-29.867 34.133s12.8 34.133 29.867 34.133h610.133c17.067 0 29.867-12.8 29.867-34.133s-12.8-34.133-29.867-34.133zM810.667 524.8h-610.133c-17.067 0-29.867 17.067-29.867 34.133s12.8 34.133 29.867 34.133h610.133c17.067 0 29.867-12.8 29.867-34.133s-12.8-34.133-29.867-34.133zM810.667 354.133h-610.133c-17.067 0-29.867 12.8-29.867 34.133s12.8 34.133 29.867 34.133h610.133c17.067 0 29.867-12.8 29.867-34.133s-12.8-34.133-29.867-34.133z" />
<glyph unicode="&#xe935;" glyph-name="check" d="M349.867 162.133c-8.533 0-17.067 4.267-25.6 8.533l-273.067 277.333c-12.8 12.8-12.8 34.133 0 46.933s34.133 12.8 46.933 0l251.733-251.733 576 482.133c12.8 12.8 34.133 8.533 46.933-4.267s8.533-34.133-4.267-46.933l-597.333-503.467c-4.267-4.267-12.8-8.533-21.333-8.533z" />
<glyph unicode="&#xe936;" glyph-name="circle-check-o" d="M512-55.467c-277.333 0-499.2 226.133-499.2 503.467s221.867 499.2 499.2 499.2c277.333 0 503.467-226.133 503.467-503.467 0-273.067-226.133-499.2-503.467-499.2zM512 883.2c-243.2 0-435.2-192-435.2-435.2s196.267-439.467 439.467-439.467c243.2 0 439.467 196.267 439.467 439.467-4.267 243.2-200.533 435.2-443.733 435.2zM418.133 264.533c-8.533 0-17.067 4.267-21.333 8.533l-162.133 162.133c-12.8 12.8-12.8 34.133 0 46.933s34.133 12.8 46.933 0l145.067-145.067 332.8 281.6c12.8 12.8 34.133 8.533 46.933-4.267s8.533-34.133-4.267-46.933l-354.133-298.667c-17.067 0-25.6-4.267-29.867-4.267z" />
<glyph unicode="&#xe937;" glyph-name="circle-check" d="M512 960c-285.867 0-512-226.133-512-512s226.133-512 512-512 512 226.133 512 512-226.133 512-512 512zM746.667 610.133l-294.4-349.867c-4.267-8.533-8.533-8.533-17.067-8.533-4.267 0-12.8 4.267-17.067 8.533l-145.067 145.067c-8.533 8.533-8.533 21.333 0 34.133 12.8 8.533 25.6 8.533 34.133 0l119.467-123.733 277.333 324.267c8.533 8.533 21.333 8.533 34.133 4.267 12.8-8.533 12.8-25.6 8.533-34.133z" />
<glyph unicode="&#xe938;" glyph-name="check-square" d="M981.333 947.2h-938.667c-17.067 0-29.867-12.8-29.867-29.867v-938.667c0-17.067 12.8-34.133 34.133-34.133h938.667c17.067 0 34.133 12.8 34.133 34.133v938.667c-4.267 17.067-21.333 29.867-38.4 29.867zM832 588.8l-460.8-332.8c-4.267-4.267-12.8-4.267-17.067-4.267-8.533 0-17.067 4.267-25.6 12.8l-140.8 166.4c-12.8 12.8-8.533 34.133 4.267 46.933s34.133 8.533 46.933-4.267l119.467-145.067 435.2 315.733c12.8 8.533 34.133 8.533 42.667-8.533 12.8-17.067 8.533-38.4-4.267-46.933z" />
<glyph unicode="&#xe939;" glyph-name="check-square-o" d="M981.333-55.467h-938.667c-17.067 0-34.133 12.8-34.133 34.133v938.667c0 17.067 12.8 34.133 34.133 34.133h938.667c17.067 0 34.133-12.8 34.133-34.133v-938.667c0-17.067-17.067-34.133-34.133-34.133zM76.8 8.533h874.667v874.667h-874.667v-874.667zM349.867 251.733c-8.533 0-17.067 4.267-25.6 12.8l-140.8 166.4c-12.8 12.8-8.533 34.133 4.267 46.933s34.133 8.533 46.933-4.267l119.467-145.067 435.2 315.733c12.8 8.533 34.133 8.533 42.667-8.533 8.533-12.8 8.533-34.133-8.533-42.667l-452.267-337.067c-8.533-4.267-12.8-4.267-21.333-4.267z" />
<glyph unicode="&#xe93a;" glyph-name="chevron-down" d="M512 221.867c-8.533 0-17.067 4.267-21.333 8.533l-384 384c-12.8 17.067-12.8 34.133 0 46.933s34.133 12.8 46.933 0l362.667-362.667 358.4 362.667c12.8 12.8 34.133 12.8 46.933 0s12.8-34.133 0-46.933l-384-384c-8.533-4.267-17.067-8.533-25.6-8.533z" />
<glyph unicode="&#xe93b;" glyph-name="chevron-left" d="M290.133 448c0 8.533 4.267 17.067 8.533 21.333l384 384c12.8 12.8 34.133 12.8 46.933 0s12.8-34.133 0-46.933l-362.667-358.4 362.667-362.667c12.8-12.8 12.8-34.133 0-46.933s-34.133-12.8-46.933 0l-384 384c-8.533 8.533-8.533 17.067-8.533 25.6z" />
<glyph unicode="&#xe93c;" glyph-name="chevron-right" d="M738.133 448c0-8.533-4.267-17.067-8.533-21.333l-384-384c-12.8-12.8-34.133-12.8-46.933 0s-12.8 34.133 0 46.933l362.667 362.667-362.667 358.4c-12.8 12.8-12.8 29.867 0 42.667s34.133 12.8 46.933 0l384-384c4.267-4.267 8.533-12.8 8.533-21.333z" />
<glyph unicode="&#xe93d;" glyph-name="chevron-up" d="M512 669.867c8.533 0 17.067-4.267 21.333-8.533l384-384c12.8-12.8 12.8-34.133 0-46.933s-34.133-12.8-46.933 0l-358.4 362.667-362.667-358.4c-12.8-12.8-34.133-12.8-46.933 0s-12.8 34.133 0 46.933l384 384c8.533 4.267 17.067 4.267 25.6 4.267z" />
<glyph unicode="&#xe93e;" glyph-name="circle" d="M512-55.467c-277.333 0-499.2 226.133-499.2 503.467s221.867 499.2 499.2 499.2c277.333 0 503.467-226.133 503.467-503.467 0-273.067-226.133-499.2-503.467-499.2z" />
<glyph unicode="&#xe93f;" glyph-name="circle-o" d="M512-55.467c-277.333 0-499.2 226.133-499.2 503.467s221.867 499.2 499.2 499.2c277.333 0 503.467-226.133 503.467-503.467 0-273.067-226.133-499.2-503.467-499.2zM512 883.2c-243.2 0-435.2-192-435.2-435.2s196.267-439.467 439.467-439.467c243.2 0 439.467 196.267 439.467 439.467-4.267 243.2-200.533 435.2-443.733 435.2z" />
<glyph unicode="&#xe940;" glyph-name="ckeditor" d="M273.067 725.333c0-21.208-17.192-38.4-38.4-38.4s-38.4 17.192-38.4 38.4c0 21.208 17.192 38.4 38.4 38.4s38.4-17.192 38.4-38.4zM384 725.333c0-21.208-17.192-38.4-38.4-38.4s-38.4 17.192-38.4 38.4c0 21.208 17.192 38.4 38.4 38.4s38.4-17.192 38.4-38.4zM494.933 725.333c0-21.208-17.192-38.4-38.4-38.4s-38.4 17.192-38.4 38.4c0 21.208 17.192 38.4 38.4 38.4s38.4-17.192 38.4-38.4zM529.067 460.8h-294.4c-17.067 0-34.133-12.8-34.133-34.133s12.8-34.133 34.133-34.133h294.4c17.067 0 34.133 12.8 34.133 34.133s-17.067 34.133-34.133 34.133zM529.067 311.467h-294.4c-17.067 0-34.133-12.8-34.133-34.133s12.8-34.133 34.133-34.133h294.4c17.067 0 34.133 12.8 34.133 34.133s-17.067 34.133-34.133 34.133zM861.867 277.333c-17.067 0-34.133-12.8-34.133-34.133v-72.533c0-21.333-17.067-42.667-42.667-42.667h-627.2c-21.333 0-42.667 17.067-42.667 42.667v409.6h746.667c17.067 0 34.133 12.8 34.133 34.133v149.333c0 59.733-46.933 106.667-106.667 106.667h-631.467c-59.733 0-106.667-46.933-106.667-106.667v-593.067c0-59.733 46.933-106.667 106.667-106.667h627.2c59.733 0 106.667 46.933 106.667 106.667v72.533c4.267 17.067-12.8 34.133-29.867 34.133zM157.867 802.133h627.2c21.333 0 42.667-17.067 42.667-42.667v-115.2h-708.267v119.467c0 21.333 17.067 38.4 38.4 38.4zM635.733 213.333l68.267 4.267 277.333 277.333-64 64-273.067-277.333z" />
<glyph unicode="&#xe941;" glyph-name="close" d="M716.8 605.867l-46.933 42.667-153.6-153.6-162.133 157.867-42.667-46.933 157.867-157.867-157.867-157.867 42.667-46.933 162.133 157.867 153.6-153.6 46.933 42.667-157.867 157.867z" />
<glyph unicode="&#xe942;" glyph-name="close-circle" d="M512-55.467c-277.333 0-499.2 226.133-499.2 503.467s221.867 499.2 499.2 499.2 503.467-226.133 503.467-503.467c0-273.067-226.133-499.2-503.467-499.2zM512 883.2c-243.2 0-435.2-192-435.2-435.2s196.267-439.467 439.467-439.467 439.467 196.267 439.467 439.467c-4.267 243.2-200.533 435.2-443.733 435.2zM716.8 605.867l-46.933 42.667-153.6-153.6-162.133 157.867-42.667-46.933 157.867-157.867-157.867-157.867 42.667-46.933 162.133 157.867 153.6-153.6 46.933 42.667-157.867 157.867z" />
<glyph unicode="&#xe943;" glyph-name="collapse" d="M1011.2 759.467c0 17.067-12.8 34.133-34.133 34.133h-601.6c-17.067-4.267-29.867-17.067-29.867-34.133s12.8-34.133 34.133-34.133h601.6c12.8 0 29.867 17.067 29.867 34.133zM102.4 605.867c4.267-4.267 12.8-4.267 17.067-4.267 8.533 0 21.333 4.267 25.6 12.8l89.6 123.733c8.533 12.8 8.533 25.6 0 38.4l-89.6 115.2c-8.533 12.8-29.867 17.067-42.667 8.533-17.067-8.533-17.067-29.867-8.533-42.667l76.8-106.667-76.8-102.4c-8.533-12.8-8.533-34.133 8.533-42.667zM977.067 401.067h-563.2c-17.067 0-34.133-12.8-34.133-34.133s12.8-34.133 34.133-34.133h563.2c17.067 0 34.133 12.8 34.133 34.133s-17.067 34.133-34.133 34.133zM977.067 51.2h-563.2c-17.067 0-34.133-12.8-34.133-34.133s12.8-34.133 34.133-34.133h563.2c17.067 0 34.133 12.8 34.133 34.133s-17.067 34.133-34.133 34.133zM264.533 435.2l-98.133-76.8-98.133 76.8c-12.8 12.8-34.133 8.533-46.933-4.267s-8.533-34.133 4.267-46.933l119.467-89.6c4.267-4.267 12.8-8.533 21.333-8.533s12.8 4.267 21.333 8.533l119.467 89.6c12.8 12.8 17.067 29.867 4.267 46.933-12.8 12.8-34.133 17.067-46.933 4.267z" />
<glyph unicode="&#xe944;" glyph-name="company" d="M896 601.6h-281.6v230.4c0 15.36-10.24 25.6-25.6 25.6h-512c-15.36 0-25.6-10.24-25.6-25.6v-768c0-15.36 10.24-25.6 25.6-25.6h819.2c15.36 0 25.6 10.24 25.6 25.6v153.6c0 15.36-10.24 25.6-25.6 25.6s-25.6-10.24-25.6-25.6v-128h-256v460.8h256v-128c0-15.36 10.24-25.6 25.6-25.6s25.6 10.24 25.6 25.6v153.6c0 15.36-10.24 25.6-25.6 25.6zM102.4 806.4h460.8v-716.8h-102.4v153.6h25.6c15.36 0 25.6 10.24 25.6 25.6s-10.24 25.6-25.6 25.6h-307.2c-15.36 0-25.6-10.24-25.6-25.6s10.24-25.6 25.6-25.6h25.6v-153.6h-102.4v716.8zM256 89.6v153.6h153.6v-153.6h-153.6zM153.6 755.2h51.2v-51.2h-51.2v51.2zM665.6 499.2h51.2v-51.2h-51.2v51.2zM768 499.2h51.2v-51.2h-51.2v51.2zM665.6 396.8h51.2v-51.2h-51.2v51.2zM768 396.8h51.2v-51.2h-51.2v51.2zM665.6 294.4h51.2v-51.2h-51.2v51.2zM768 294.4h51.2v-51.2h-51.2v51.2zM256 755.2h51.2v-51.2h-51.2v51.2zM358.4 755.2h51.2v-51.2h-51.2v51.2zM460.8 755.2h51.2v-51.2h-51.2v51.2zM153.6 652.8h51.2v-51.2h-51.2v51.2zM256 652.8h51.2v-51.2h-51.2v51.2zM358.4 652.8h51.2v-51.2h-51.2v51.2zM460.8 652.8h51.2v-51.2h-51.2v51.2zM153.6 550.4h51.2v-51.2h-51.2v51.2zM256 550.4h51.2v-51.2h-51.2v51.2zM358.4 550.4h51.2v-51.2h-51.2v51.2zM460.8 550.4h51.2v-51.2h-51.2v51.2zM153.6 448h51.2v-51.2h-51.2v51.2zM256 448h51.2v-51.2h-51.2v51.2zM358.4 448h51.2v-51.2h-51.2v51.2zM460.8 448h51.2v-51.2h-51.2v51.2zM921.6 320c0-14.138-11.462-25.6-25.6-25.6s-25.6 11.462-25.6 25.6c0 14.138 11.462 25.6 25.6 25.6s25.6-11.462 25.6-25.6z" />
<glyph unicode="&#xe945;" glyph-name="components" d="M1024 362.667v170.667h-183.467c-8.533 29.867-21.333 59.733-38.4 89.6l128 128-119.467 119.467-128-128c-25.6 17.067-55.467 29.867-89.6 38.4v179.2h-170.667v-183.467c-25.6-8.533-55.467-17.067-85.333-34.133l-128 128-119.467-119.467 128-128c-17.067-29.867-25.6-59.733-34.133-89.6h-183.467v-170.667h183.467c8.533-29.867 21.333-59.733 38.4-89.6l-128-128 119.467-119.467 128 128c25.6-17.067 55.467-29.867 89.6-38.4v-179.2h170.667v183.467c29.867 8.533 59.733 21.333 89.6 38.4l128-128 119.467 119.467-128 128c17.067 25.6 29.867 55.467 38.4 89.6h174.933zM512 277.333c-93.867 0-170.667 76.8-170.667 170.667s76.8 170.667 170.667 170.667 170.667-76.8 170.667-170.667c0-93.867-76.8-170.667-170.667-170.667z" />
<glyph unicode="&#xe946;" glyph-name="compose" d="M473.6 162.133h-345.6c-51.2 0-93.867 42.667-93.867 93.867v443.733c0 51.2 42.667 93.867 93.867 93.867h635.733c51.2 0 93.867-42.667 93.867-93.867v-119.467c0-17.067-12.8-29.867-29.867-29.867s-29.867 12.8-29.867 29.867v119.467c0 17.067-12.8 34.133-34.133 34.133h-635.733c-17.067 0-34.133-12.8-34.133-34.133v-443.733c0-17.067 12.8-34.133 34.133-34.133h345.6c17.067 0 29.867-12.8 29.867-29.867s-12.8-29.867-29.867-29.867zM443.733 401.067c-8.533 0-12.8 4.267-21.333 8.533l-251.733 204.8c-12.8 8.533-17.067 29.867-4.267 42.667s29.867 12.8 46.933 4.267l234.667-192 230.4 192c12.8 8.533 34.133 8.533 42.667-4.267 12.8-12.8 8.533-34.133-4.267-42.667l-251.733-209.067c-4.267-4.267-12.8-4.267-21.333-4.267zM891.733 499.2l68.267-68.267c4.267-4.267 8.533-4.267 12.8 0l51.2 51.2c4.267 4.267 4.267 8.533 0 12.8l-68.267 68.267c-4.267 4.267-8.533 4.267-12.8 0l-51.2-51.2c-4.267-4.267-4.267-12.8 0-12.8zM844.8 465.067l-213.333-213.333c0 0 0-4.267-4.267-4.267l-25.6-81.067c-4.267-8.533 4.267-12.8 12.8-12.8l89.6 17.067c0 0 4.267 0 4.267 4.267l213.333 213.333c4.267 4.267 4.267 12.8 0 12.8l-64 64c0 4.267-8.533 4.267-12.8 0z" />
<glyph unicode="&#xe947;" glyph-name="contacts" d="M896 947.2h-691.2c-64 0-115.2-51.2-115.2-115.2v-149.333c0-17.067 12.8-34.133 34.133-34.133s34.133 12.8 34.133 34.133v149.333c0 29.867 21.333 51.2 51.2 51.2h686.933c29.867 0 51.2-21.333 51.2-51.2v-768c0-29.867-21.333-51.2-51.2-51.2h-691.2c-29.867 0-51.2 21.333-51.2 51.2v110.933c0 17.067-12.8 34.133-34.133 34.133s-29.867-17.067-29.867-34.133v-110.933c0-64 51.2-115.2 115.2-115.2h691.2c64 0 115.2 51.2 115.2 115.2v768c4.267 64-51.2 115.2-115.2 115.2zM42.667 533.333h196.267c17.067 0 29.867 12.8 29.867 29.867s-12.8 34.133-29.867 34.133h-196.267c-17.067 0-34.133-12.8-34.133-34.133s17.067-29.867 34.133-29.867zM42.667 396.8h196.267c17.067 0 34.133 12.8 34.133 34.133s-17.067 29.867-34.133 29.867h-196.267c-17.067 0-34.133-12.8-34.133-34.133s17.067-29.867 34.133-29.867zM268.8 290.133c0 17.067-12.8 34.133-34.133 34.133h-192c-17.067 0-34.133-12.8-34.133-34.133s12.8-34.133 34.133-34.133h196.267c17.067 4.267 29.867 17.067 29.867 34.133zM738.133 563.2c0 76.8-64 140.8-140.8 140.8s-140.8-64-140.8-140.8 64-140.8 140.8-140.8 140.8 64 140.8 140.8zM524.8 563.2c0 42.667 34.133 76.8 76.8 76.8s76.8-34.133 76.8-76.8-38.4-72.533-76.8-72.533-76.8 34.133-76.8 72.533zM392.533 213.333c0-17.067 12.8-34.133 34.133-34.133s34.133 12.8 34.133 34.133c0 68.267 55.467 123.733 123.733 123.733h38.4c68.267 0 123.733-55.467 123.733-123.733 0-17.067 12.8-34.133 34.133-34.133s34.133 12.8 34.133 34.133c0 102.4-85.333 187.733-187.733 187.733h-38.4c-110.933 0-196.267-85.333-196.267-187.733z" />
<glyph unicode="&#xe948;" glyph-name="copy" d="M934.4 704c0 4.267-4.267 8.533-8.533 8.533l-226.133 226.133c-4.267 4.267-12.8 8.533-21.333 8.533h-320c-17.067 0-29.867-12.8-29.867-29.867v-123.733h-123.733c-21.333 0-34.133-12.8-34.133-34.133v-772.267c0-17.067 12.8-34.133 34.133-34.133h546.133c17.067 0 34.133 12.8 34.133 34.133v123.733h123.733c17.067 0 34.133 12.8 34.133 34.133v546.133c-4.267 4.267-4.267 8.533-8.533 12.8zM712.533 840.533l119.467-119.467h-119.467v119.467zM716.8 21.333h-482.133v708.267h93.867v-584.533c0-17.067 12.8-34.133 34.133-34.133h358.4v-89.6zM392.533 174.933v708.267h256v-192c0-17.067 12.8-34.133 34.133-34.133h196.267v-482.133h-486.4zM776.533 571.733h-290.133c-17.067 0-34.133-12.8-34.133-34.133s12.8-34.133 34.133-34.133h290.133c17.067 0 34.133 12.8 34.133 34.133s-17.067 34.133-34.133 34.133zM776.533 452.267h-290.133c-17.067 0-34.133-12.8-34.133-34.133 0-17.067 12.8-29.867 34.133-29.867h290.133c17.067 0 34.133 12.8 34.133 29.867 0 21.333-17.067 34.133-34.133 34.133zM776.533 337.067h-290.133c-17.067 0-34.133-12.8-34.133-34.133s12.8-34.133 34.133-34.133h290.133c17.067 0 34.133 12.8 34.133 34.133s-17.067 34.133-34.133 34.133z" />
<glyph unicode="&#xe949;" glyph-name="crm" d="M891.733 281.6v166.4c0 17.067-12.8 34.133-34.133 34.133h-315.733v132.267c68.267 12.8 115.2 72.533 115.2 145.067 0 81.067-68.267 149.333-149.333 149.333s-149.333-68.267-149.333-149.333c0-72.533 51.2-128 115.2-145.067v-132.267h-311.467c-17.067 0-34.133-12.8-34.133-34.133v-166.4c-68.267-12.8-115.2-72.533-115.2-145.067 0-81.067 68.267-149.333 149.333-149.333s149.333 68.267 149.333 149.333c0 72.533-51.2 128-115.2 145.067v132.267h635.733v-132.267c-68.267-12.8-115.2-72.533-115.2-145.067 0-81.067 68.267-149.333 149.333-149.333s149.333 68.267 149.333 149.333c-4.267 72.533-55.467 132.267-123.733 145.067zM426.667 759.467c0 46.933 38.4 85.333 85.333 85.333s85.333-38.4 85.333-85.333-38.4-85.333-85.333-85.333c-46.933 0-85.333 38.4-85.333 85.333zM247.467 136.533c0-46.933-38.4-85.333-85.333-85.333s-85.333 38.4-85.333 85.333c0 46.933 38.4 85.333 85.333 85.333s85.333-38.4 85.333-85.333zM861.867 51.2c-46.933 0-85.333 38.4-85.333 85.333s38.4 85.333 85.333 85.333 85.333-38.4 85.333-85.333c0-46.933-38.4-85.333-85.333-85.333z" />
<glyph unicode="&#xe94a;" glyph-name="crypto" d="M810.667 588.8v8.533c0 89.6-59.733 149.333-157.867 149.333h-140.8v192c0 12.8-8.533 21.333-21.333 21.333s-21.333-8.533-21.333-21.333v-192h-128v192c0 12.8-8.533 21.333-21.333 21.333s-21.333-8.533-21.333-21.333v-192h-51.2c-12.8 0-21.333-8.533-21.333-21.333s8.533-21.333 21.333-21.333h51.2v-213.333h-64c-12.8 0-21.333-8.533-21.333-21.333s8.533-21.333 21.333-21.333h64v-213.333h-64c-12.8 0-21.333-8.533-21.333-21.333s8.533-21.333 21.333-21.333h64v-234.667c0-12.8 8.533-21.333 21.333-21.333s21.333 8.533 21.333 21.333v234.667h128v-234.667c0-12.8 8.533-21.333 21.333-21.333s21.333 8.533 21.333 21.333v234.667h119.467c85.333 0 179.2 46.933 179.2 140.8v8.533c0 59.733-29.867 106.667-76.8 132.267 42.667 21.333 76.8 59.733 76.8 115.2zM768 345.6v-8.533c0-72.533-68.267-102.4-136.533-102.4h-290.133v213.333h290.133c12.8 0 25.6 0 38.4 4.267 59.733-8.533 98.133-42.667 98.133-106.667zM768 593.067c0-72.533-68.267-102.4-136.533-102.4h-290.133v213.333h311.467c72.533 0 115.2-38.4 115.2-110.933v0z" />
<glyph unicode="&#xe94b;" glyph-name="culture-calendar" d="M938.667 490.667c0 64-17.067 123.733-42.667 179.2 8.533 17.067 17.067 34.133 17.067 55.467 0 64-51.2 119.467-119.467 119.467-21.333 0-38.4-4.267-55.467-17.067-55.467 29.867-119.467 46.933-183.467 46.933-170.667 0-315.733-110.933-362.667-264.533-59.733-8.533-106.667-55.467-106.667-119.467s46.933-110.933 106.667-115.2c38.4-115.2 128-209.067 247.467-247.467 4.267-59.733 55.467-106.667 115.2-106.667s110.933 46.933 115.2 106.667c157.867 51.2 268.8 196.267 268.8 362.667zM661.333 187.733c-17.067 42.667-59.733 68.267-106.667 68.267s-89.6-29.867-106.667-68.267c-93.867 34.133-166.4 106.667-196.267 196.267 42.667 17.067 68.267 59.733 68.267 106.667s-25.6 89.6-68.267 106.667c42.667 123.733 162.133 217.6 302.933 217.6 46.933 0 93.867-12.8 132.267-29.867-8.533-17.067-17.067-38.4-17.067-59.733 0-64 51.2-119.467 119.467-119.467 21.333 0 42.667 4.267 59.733 17.067 17.067-42.667 29.867-85.333 29.867-132.267 0-140.8-89.6-260.267-217.6-302.933z" />
<glyph unicode="&#xe94c;" glyph-name="custom-view" d="M960 452.267c-8.533 0-17.067 4.267-25.6 12.8-12.8 17.067-25.6 29.867-38.4 46.933-12.8 12.8-12.8 34.133 0 46.933s34.133 12.8 46.933 0c17.067-17.067 29.867-34.133 42.667-51.2 12.8-12.8 8.533-34.133-4.267-46.933-8.533-8.533-12.8-8.533-21.333-8.533zM819.2 584.533c-4.267 0-12.8 0-17.067 4.267-34.133 25.6-72.533 42.667-106.667 59.733-17.067 8.533-25.6 25.6-17.067 42.667s25.6 25.6 42.667 17.067c42.667-17.067 81.067-38.4 119.467-64 12.8-8.533 17.067-29.867 8.533-42.667s-21.333-17.067-29.867-17.067zM204.8 584.533c-8.533 0-21.333 4.267-25.6 12.8-8.533 12.8-4.267 34.133 8.533 42.667 38.4 29.867 81.067 51.2 119.467 64 17.067 8.533 34.133 0 42.667-17.067s0-34.133-17.067-42.667c-38.4-12.8-72.533-34.133-110.933-55.467-4.267-4.267-8.533-4.267-17.067-4.267zM576 678.4c0 0 0 0 0 0-42.667 4.267-85.333 4.267-128 0-12.8-4.267-29.867 8.533-34.133 25.6 0 17.067 12.8 34.133 29.867 38.4 46.933 4.267 93.867 4.267 136.533 0 17.067-4.267 29.867-21.333 29.867-38.4-4.267-17.067-17.067-25.6-34.133-25.6zM64 452.267c-8.533 0-12.8 4.267-21.333 8.533-12.8 12.8-17.067 29.867-4.267 46.933s29.867 34.133 42.667 51.2c12.8 12.8 34.133 12.8 46.933 0s12.8-34.133 0-46.933c-12.8-12.8-25.6-29.867-42.667-46.933-4.267-12.8-12.8-12.8-21.333-12.8zM106.667 332.8c-8.533 0-17.067 4.267-21.333 8.533-17.067 17.067-29.867 34.133-42.667 51.2-12.8 12.8-12.8 34.133 0 46.933 12.8 8.533 34.133 8.533 46.933-4.267 12.8-17.067 25.6-29.867 42.667-46.933 12.8-12.8 12.8-34.133 0-46.933-8.533-4.267-17.067-8.533-25.6-8.533zM512 149.333c-21.333 0-46.933 0-68.267 4.267-17.067 4.267-29.867 21.333-29.867 38.4s17.067 29.867 34.133 25.6c38.4-4.267 81.067-4.267 123.733 0 17.067 0 34.133-8.533 34.133-25.6 4.267-17.067-8.533-34.133-25.6-34.133-21.333-4.267-46.933-8.533-68.267-8.533zM704 187.733c-12.8 0-25.6 8.533-29.867 21.333-8.533 17.067 0 34.133 17.067 42.667 38.4 12.8 72.533 34.133 106.667 59.733 12.8 8.533 34.133 4.267 42.667-8.533s4.267-34.133-8.533-42.667c-38.4-25.6-81.067-46.933-119.467-64 0-8.533-4.267-8.533-8.533-8.533zM320 187.733c-4.267 0-8.533 0-12.8 4.267-42.667 17.067-81.067 38.4-119.467 64-12.8 8.533-17.067 29.867-8.533 42.667s29.867 17.067 42.667 8.533c34.133-25.6 72.533-42.667 106.667-59.733 17.067-8.533 25.6-25.6 17.067-42.667 0-8.533-12.8-17.067-25.6-17.067zM917.333 332.8c-8.533 0-17.067 4.267-21.333 8.533-12.8 12.8-12.8 34.133 0 46.933s25.6 29.867 42.667 46.933c12.8 12.8 29.867 17.067 46.933 4.267 12.8-12.8 17.067-29.867 4.267-46.933s-29.867-34.133-42.667-51.2c-12.8-4.267-21.333-8.533-29.867-8.533zM512 290.133c-85.333 0-157.867 72.533-157.867 157.867s72.533 157.867 157.867 157.867c85.333 0 157.867-72.533 157.867-157.867s-72.533-157.867-157.867-157.867zM512 541.867c-51.2 0-93.867-42.667-93.867-93.867s42.667-93.867 93.867-93.867 93.867 42.667 93.867 93.867-42.667 93.867-93.867 93.867z" />
<glyph unicode="&#xe94d;" glyph-name="dashboard" d="M512 793.6c-277.333 0-499.2-226.133-503.467-503.467 0-21.333 17.067-34.133 34.133-34.133h221.867c21.333 0 34.133 12.8 34.133 34.133s-17.067 34.133-34.133 34.133h-187.733c17.067 226.133 204.8 405.333 435.2 405.333s418.133-179.2 435.2-401.067h-153.6c-21.333 0-34.133-12.8-34.133-34.133s17.067-34.133 34.133-34.133h187.733c17.067 0 34.133 17.067 34.133 29.867 0 277.333-226.133 503.467-503.467 503.467zM610.133 392.533l-200.533 174.933c-12.8 8.533-25.6 8.533-38.4 4.267-12.8-8.533-17.067-21.333-17.067-34.133 12.8-98.133 29.867-251.733 29.867-260.267 0-17.067 4.267-38.4 17.067-55.467v-4.267c21.333-46.933 72.533-81.067 128-81.067 76.8 0 140.8 64 140.8 140.8 0 34.133-12.8 68.267-34.133 93.867-8.533 8.533-17.067 17.067-25.6 21.333zM529.067 200.533c-29.867 0-59.733 17.067-72.533 46.933-4.267 8.533-8.533 21.333-8.533 29.867 0 4.267 0 8.533-21.333 187.733l140.8-119.467c0-4.267 4.267-4.267 4.267-4.267 4.267-4.267 8.533-8.533 12.8-12.8 8.533-8.533 21.333-25.6 21.333-51.2 0-42.667-34.133-76.8-76.8-76.8z" />
<glyph unicode="&#xe94e;" glyph-name="data-display" d="M896 947.2h-768c-64 0-115.2-51.2-115.2-115.2v-499.2c0-64 51.2-115.2 115.2-115.2h768c64 0 115.2 51.2 115.2 115.2v499.2c4.267 64-51.2 115.2-115.2 115.2zM951.467 337.067c0-29.867-21.333-51.2-51.2-51.2h-772.267c-29.867 0-51.2 21.333-51.2 51.2v494.933c0 29.867 21.333 51.2 51.2 51.2h768c29.867 0 51.2-21.333 51.2-51.2v-494.933zM746.667 8.533h-204.8v145.067c0 17.067-12.8 34.133-34.133 34.133s-34.133-12.8-34.133-34.133v-145.067h-196.267c-17.067 0-34.133-12.8-34.133-34.133s12.8-34.133 34.133-34.133h469.333c17.067 0 34.133 12.8 34.133 34.133s-17.067 34.133-34.133 34.133zM315.733 605.867c-29.867 0-59.733-29.867-59.733-59.733v-119.467c0-34.133 25.6-59.733 59.733-59.733s59.733 25.6 59.733 59.733v119.467c0 29.867-25.6 59.733-59.733 59.733zM512 682.667c-34.133 0-59.733-25.6-59.733-59.733v-196.267c0-34.133 25.6-59.733 59.733-59.733s59.733 25.6 59.733 59.733v196.267c0 34.133-25.6 59.733-59.733 59.733zM708.267 797.867c-34.133 0-59.733-25.6-59.733-59.733v-311.467c0-34.133 25.6-59.733 59.733-59.733s59.733 25.6 59.733 59.733v315.733c0 29.867-29.867 55.467-59.733 55.467z" />
<glyph unicode="&#xe94f;" glyph-name="data-entry" d="M896 810.667h-768c-64 0-115.2-51.2-115.2-115.2v-499.2c0-64 51.2-115.2 115.2-115.2h768c64 0 115.2 51.2 115.2 115.2v499.2c4.267 64-51.2 115.2-115.2 115.2zM951.467 200.533c0-29.867-21.333-51.2-51.2-51.2h-772.267c-29.867 0-51.2 21.333-51.2 51.2v494.933c0 29.867 21.333 51.2 51.2 51.2h768c29.867 0 51.2-21.333 51.2-51.2v-494.933zM209.067 546.133h59.733c4.267 0 8.533 4.267 8.533 8.533v59.733c0 4.267-4.267 8.533-8.533 8.533h-59.733c-4.267 0-8.533-4.267-8.533-8.533v-59.733c0-4.267 4.267-8.533 8.533-8.533zM345.6 546.133h59.733c4.267 0 8.533 4.267 8.533 8.533v59.733c0 4.267-4.267 8.533-8.533 8.533h-59.733c-4.267 0-8.533-4.267-8.533-8.533v-59.733c0-4.267 4.267-8.533 8.533-8.533zM482.133 546.133h59.733c4.267 0 8.533 4.267 8.533 8.533v59.733c0 4.267-4.267 8.533-8.533 8.533h-59.733c-4.267 0-8.533-4.267-8.533-8.533v-59.733c0-4.267 4.267-8.533 8.533-8.533zM618.667 546.133h59.733c4.267 0 8.533 4.267 8.533 8.533v59.733c0 4.267-4.267 8.533-8.533 8.533h-59.733c-4.267 0-8.533-4.267-8.533-8.533v-59.733c0-4.267 4.267-8.533 8.533-8.533zM814.933 622.933h-59.733c-4.267 0-8.533-4.267-8.533-8.533v-59.733c0-4.267 4.267-8.533 8.533-8.533h59.733c4.267 0 8.533 4.267 8.533 8.533v59.733c0 4.267-4.267 8.533-8.533 8.533zM268.8 349.867h-59.733c-4.267 0-8.533-4.267-8.533-8.533v-59.733c0-4.267 4.267-8.533 8.533-8.533h59.733c4.267 0 8.533 4.267 8.533 8.533v59.733c0 4.267-4.267 8.533-8.533 8.533zM814.933 349.867h-59.733c-4.267 0-8.533-4.267-8.533-8.533v-59.733c0-4.267 4.267-8.533 8.533-8.533h59.733c4.267 0 8.533 4.267 8.533 8.533v59.733c0 4.267-4.267 8.533-8.533 8.533zM256 494.933v-59.733c0-4.267 4.267-8.533 8.533-8.533h59.733c4.267 0 8.533 4.267 8.533 8.533v59.733c0 4.267-4.267 8.533-8.533 8.533h-55.467c-8.533 4.267-12.8 0-12.8-8.533zM396.8 494.933v-59.733c0-4.267 4.267-8.533 8.533-8.533h59.733c4.267 0 8.533 4.267 8.533 8.533v59.733c0 4.267-4.267 8.533-8.533 8.533h-59.733c-4.267 4.267-8.533 0-8.533-8.533zM533.333 494.933v-59.733c0-4.267 4.267-8.533 8.533-8.533h59.733c4.267 0 8.533 4.267 8.533 8.533v59.733c0 4.267-4.267 8.533-8.533 8.533h-59.733c-4.267 4.267-8.533 0-8.533-8.533zM746.667 494.933c0 4.267-4.267 8.533-8.533 8.533h-59.733c-4.267 0-8.533-4.267-8.533-8.533v-59.733c0-4.267 4.267-8.533 8.533-8.533h59.733c4.267 0 8.533 4.267 8.533 8.533v59.733zM669.867 349.867h-315.733c-21.333 0-38.4-17.067-38.4-38.4s17.067-38.4 38.4-38.4h311.467c21.333 0 38.4 17.067 38.4 38.4s-12.8 38.4-34.133 38.4z" />
<glyph unicode="&#xe950;" glyph-name="datepicker" d="M853.333 883.2h-51.2v59.733h-98.133v-59.733h-388.267v59.733h-98.133v-59.733h-46.933c-68.267 0-128-55.467-128-128v-674.133c0-68.267 55.467-128 128-128h682.667c68.267 0 128 55.467 128 128v674.133c0 68.267-55.467 128-128 128zM853.333 12.8h-682.667c-38.4 0-68.267 29.867-68.267 68.267v524.8h819.2v-524.8c0-38.4-29.867-68.267-68.267-68.267zM170.667 490.667h98.133v-98.133h-98.133v98.133zM366.933 490.667h98.133v-98.133h-98.133v98.133zM558.933 490.667h98.133v-98.133h-98.133v98.133zM755.2 490.667h98.133v-98.133h-98.133v98.133zM170.667 247.467h98.133v-98.133h-98.133v98.133zM366.933 247.467h98.133v-98.133h-98.133v98.133zM558.933 247.467h98.133v-98.133h-98.133v98.133zM755.2 247.467h98.133v-98.133h-98.133v98.133z" />
<glyph unicode="&#xe951;" glyph-name="default-timeline" d="M904.533 605.867c-42.667 0-76.8-34.133-76.8-76.8 0-12.8 4.267-21.333 4.267-29.867l-123.733-123.733-166.4 196.267c4.267 12.8 8.533 21.333 8.533 34.133 0 42.667-34.133 76.8-76.8 76.8s-76.8-34.133-76.8-76.8c0-8.533 0-17.067 4.267-25.6l-247.467-217.6c-8.533 4.267-21.333 8.533-34.133 8.533-42.667 0-76.8-34.133-76.8-76.8s34.133-76.8 76.8-76.8 76.8 34.133 76.8 76.8c0 8.533 0 17.067-4.267 25.6l243.2 217.6c8.533-4.267 21.333-8.533 34.133-8.533 8.533 0 17.067 0 25.6 4.267l187.733-217.6c4.267-4.267 12.8-8.533 21.333-8.533s17.067 4.267 21.333 8.533l145.067 145.067c8.533-4.267 21.333-4.267 29.867-4.267 42.667 0 76.8 34.133 76.8 76.8 4.267 34.133-29.867 72.533-72.533 72.533z" />
<glyph unicode="&#xe952;" glyph-name="diamond" d="M896 541.867c0 8.533-4.267 12.8-8.533 17.067l-149.333 132.267c-4.267 4.267-8.533 4.267-12.8 4.267h-426.667c-4.267 0-8.533 0-12.8 0l-149.333-132.267c-4.267-4.267-8.533-12.8-8.533-17.067 0-8.533 0-12.8 4.267-17.067l106.667-128c8.533-12.8 21.333-12.8 29.867-4.267 12.8 8.533 12.8 21.333 4.267 29.867l-81.067 93.867h192l98.133-371.2-98.133 128c-8.533 8.533-21.333 12.8-29.867 4.267-8.533-4.267-12.8-21.333-4.267-29.867l162.133-221.867c4.267-4.267 4.267-4.267 8.533-8.533 4.267 0 4.267 0 8.533 0s4.267 0 8.533 4.267c4.267 0 8.533 4.267 8.533 4.267l345.6 494.933c0 4.267 4.267 8.533 4.267 17.067zM294.4 640l59.733-76.8h-145.067l85.333 76.8zM554.667 652.8h153.6l-72.533-89.6-81.067 89.6zM576 563.2h-123.733l59.733 68.267 64-68.267zM401.067 567.467l-64 85.333h136.533l-72.533-85.333zM601.6 520.533l-76.8-384-102.4 384h179.2zM644.267 516.267c4.267 0 4.267 4.267 8.533 4.267h183.467l-264.533-379.733 72.533 375.467zM686.933 563.2l55.467 68.267 76.8-68.267h-132.267zM332.8 332.8c0-11.782-9.551-21.333-21.333-21.333s-21.333 9.551-21.333 21.333c0 11.782 9.551 21.333 21.333 21.333s21.333-9.551 21.333-21.333zM533.333 742.4c12.8 0 21.333 8.533 21.333 21.333v89.6c0 12.8-8.533 21.333-21.333 21.333s-21.333-8.533-21.333-21.333v-89.6c0-12.8 8.533-21.333 21.333-21.333zM251.733 759.467c4.267-4.267 8.533-4.267 12.8-4.267s12.8 0 12.8 4.267c8.533 8.533 8.533 21.333 0 29.867l-59.733 64c-8.533 8.533-21.333 8.533-29.867 0s-8.533-21.333 0-29.867l64-64zM759.467 755.2c4.267 0 8.533 0 12.8 8.533l59.733 64c8.533 8.533 8.533 21.333 0 29.867s-21.333 8.533-29.867 0l-59.733-64c-8.533-8.533-8.533-21.333 0-29.867 4.267-4.267 12.8-8.533 17.067-8.533z" />
<glyph unicode="&#xe953;" glyph-name="divider" d="M981.333 413.867h-938.667c-17.067 0-34.133 12.8-34.133 34.133s12.8 34.133 34.133 34.133h938.667c17.067 0 34.133-12.8 34.133-34.133s-17.067-34.133-34.133-34.133z" />
<glyph unicode="&#xe954;" glyph-name="donut" d="M955.733 512v0c-34.133 217.6-217.6 384-443.733 384-247.467 0-448-200.533-448-448 0-153.6 76.8-298.667 209.067-379.733 4.267-4.267 12.8-4.267 17.067 0 4.267 0 12.8 8.533 12.8 12.8 17.067 42.667 55.467 68.267 98.133 68.267 59.733 0 106.667-46.933 106.667-106.667 0-12.8 8.533-21.333 21.333-21.333s21.333 8.533 21.333 21.333c0 59.733 46.933 106.667 106.667 106.667 38.4 0 72.533-21.333 89.6-51.2 4.267-4.267 8.533-8.533 12.8-8.533s12.8 0 17.067 4.267c110.933 85.333 192 204.8 179.2 418.133zM106.667 448c0 221.867 183.467 405.333 405.333 405.333 200.533 0 366.933-145.067 401.067-337.067-21.333-34.133-46.933-64-81.067-85.333-38.4-25.6-89.6-29.867-153.6-21.333 4.267 12.8 4.267 25.6 4.267 42.667 0 93.867-76.8 170.667-170.667 170.667s-170.667-76.8-170.667-170.667c0-4.267 0-4.267 0-8.533h-4.267c-85.333-25.6-145.067-89.6-196.267-153.6-21.333 51.2-34.133 102.4-34.133 157.867zM640 448c0-72.533-55.467-128-128-128s-128 55.467-128 128 55.467 128 128 128 128-55.467 128-128zM917.333 452.267c0-123.733-51.2-234.667-140.8-311.467-29.867 34.133-68.267 51.2-115.2 51.2-55.467 0-102.4-29.867-128-72.533-25.6 42.667-72.533 72.533-128 72.533-51.2 0-102.4-29.867-128-72.533-46.933 34.133-85.333 76.8-115.2 128 51.2 64 110.933 132.267 187.733 153.6 21.333-68.267 85.333-123.733 162.133-123.733 64 0 119.467 34.133 149.333 89.6 21.333-4.267 42.667-4.267 59.733-4.267 51.2 0 93.867 12.8 132.267 34.133 25.6 17.067 46.933 38.4 64 55.467 0 4.267 0 0 0 0zM789.333 490.667c12.8 0 21.333 8.533 21.333 21.333v42.667c0 12.8-8.533 21.333-21.333 21.333s-21.333-8.533-21.333-21.333v-42.667c0-12.8 8.533-21.333 21.333-21.333zM213.333 426.667v42.667c0 12.8-8.533 21.333-21.333 21.333s-21.333-8.533-21.333-21.333v-42.667c0-12.8 8.533-21.333 21.333-21.333s21.333 8.533 21.333 21.333zM217.6 580.267c4.267 0 12.8 0 17.067 4.267l29.867 34.133c8.533 8.533 8.533 21.333 0 29.867s-21.333 8.533-29.867 0l-29.867-29.867c-8.533-8.533-8.533-21.333 0-29.867 4.267-4.267 8.533-8.533 12.8-8.533zM345.6 708.267c4.267 0 12.8 0 17.067 4.267l29.867 34.133c8.533 8.533 8.533 21.333 0 29.867s-21.333 8.533-29.867 0l-29.867-29.867c-8.533-8.533-8.533-21.333 0-29.867 4.267-4.267 8.533-8.533 12.8-8.533zM661.333 661.333h42.667c12.8 0 21.333 8.533 21.333 21.333s-8.533 21.333-21.333 21.333h-42.667c-12.8 0-21.333-8.533-21.333-21.333s8.533-21.333 21.333-21.333zM533.333 746.667h42.667c12.8 0 21.333 8.533 21.333 21.333s-8.533 21.333-21.333 21.333h-42.667c-12.8 0-21.333-8.533-21.333-21.333s8.533-21.333 21.333-21.333zM298.667 512c0-11.782-9.551-21.333-21.333-21.333s-21.333 9.551-21.333 21.333c0 11.782 9.551 21.333 21.333 21.333s21.333-9.551 21.333-21.333zM554.667 682.667c0-11.782-9.551-21.333-21.333-21.333s-21.333 9.551-21.333 21.333c0 11.782 9.551 21.333 21.333 21.333s21.333-9.551 21.333-21.333zM384 640c0-11.782-9.551-21.333-21.333-21.333s-21.333 9.551-21.333 21.333c0 11.782 9.551 21.333 21.333 21.333s21.333-9.551 21.333-21.333zM810.667 640c0-11.782-9.551-21.333-21.333-21.333s-21.333 9.551-21.333 21.333c0 11.782 9.551 21.333 21.333 21.333s21.333-9.551 21.333-21.333zM725.333 554.667c0-11.782-9.551-21.333-21.333-21.333s-21.333 9.551-21.333 21.333c0 11.782 9.551 21.333 21.333 21.333s21.333-9.551 21.333-21.333z" />
<glyph unicode="&#xe955;" glyph-name="down" d="M1015.467 166.4l-307.2 68.267 85.333 93.867-200.533 183.467-187.733-149.333c-12.8-8.533-29.867-8.533-42.667 0l-341.333 290.133c-12.8 4.267-12.8 25.6-4.267 38.4 8.533 8.533 17.067 12.8 25.6 12.8s12.8-4.267 21.333-8.533l320-273.067 187.733 153.6c12.8 8.533 29.867 8.533 42.667 0l221.867-200.533 85.333 93.867 93.867-302.933z" />
<glyph unicode="&#xe956;" glyph-name="draft" d="M951.467 563.2l-388.267 324.267c-29.867 25.6-72.533 25.6-106.667 0l-388.267-324.267c-17.067-17.067-25.6-38.4-25.6-59.733v-435.2c0-42.667 34.133-76.8 76.8-76.8h780.8c42.667 0 76.8 34.133 76.8 76.8v430.933c4.267 25.6-4.267 46.933-25.6 64zM512 187.733l-354.133 311.467 354.133 273.067 354.133-273.067-354.133-311.467z" />
<glyph unicode="&#xe957;" glyph-name="drag-and-drop" d="M951.467 285.867c-17.067 0-29.867-12.8-29.867-29.867v-68.267h-68.267c-17.067 0-29.867-12.8-29.867-29.867s12.8-29.867 29.867-29.867h93.867c17.067 0 29.867 12.8 29.867 29.867v93.867c4.267 21.333-8.533 34.133-25.6 34.133zM678.4 187.733h-179.2c-17.067 0-29.867-12.8-29.867-29.867s12.8-29.867 29.867-29.867h179.2c17.067 0 29.867 12.8 29.867 29.867s-12.8 29.867-29.867 29.867zM226.133 132.267h93.867c17.067 0 29.867 12.8 29.867 29.867s-12.8 29.867-29.867 29.867h-68.267v68.267c0 17.067-12.8 29.867-29.867 29.867s-29.867-12.8-29.867-29.867v-93.867c4.267-21.333 17.067-34.133 34.133-34.133zM226.133 405.333c17.067 0 29.867 12.8 29.867 29.867v179.2c0 17.067-12.8 29.867-29.867 29.867s-29.867-12.8-29.867-29.867v-179.2c0-17.067 12.8-29.867 29.867-29.867zM226.133 763.733c17.067 0 29.867 12.8 29.867 29.867v68.267h68.267c17.067 0 29.867 12.8 29.867 29.867s-17.067 25.6-34.133 25.6h-93.867c-17.067 0-29.867-12.8-29.867-29.867v-93.867c0-17.067 12.8-29.867 29.867-29.867zM499.2 861.867h179.2c17.067 0 29.867 12.8 29.867 29.867s-12.8 25.6-29.867 25.6h-179.2c-17.067 0-29.867-12.8-29.867-29.867s12.8-25.6 29.867-25.6zM951.467 917.333h-93.867c-17.067 0-29.867-12.8-29.867-29.867s12.8-29.867 29.867-29.867h68.267v-68.267c0-17.067 12.8-29.867 29.867-29.867s25.6 17.067 25.6 34.133v93.867c0 17.067-12.8 29.867-29.867 29.867zM951.467 644.267c-17.067 0-29.867-12.8-29.867-29.867v-179.2c0-17.067 12.8-29.867 29.867-29.867s29.867 12.8 29.867 29.867v179.2c0 17.067-12.8 29.867-29.867 29.867zM682.667 610.133h-153.6c-17.067 0-29.867-12.8-29.867-29.867s12.8-29.867 29.867-29.867h81.067l-204.8-170.667h-332.8c-17.067 0-29.867-12.8-29.867-29.867v-345.6c0-12.8 12.8-25.6 29.867-25.6h345.6c17.067 0 29.867 12.8 29.867 29.867v332.8l209.067 174.933v-85.333c0-17.067 12.8-29.867 29.867-29.867s29.867 12.8 29.867 29.867v149.333c-4.267 17.067-17.067 29.867-34.133 29.867zM388.267 34.133h-290.133v285.867h285.867v-285.867z" />
<glyph unicode="&#xe958;" glyph-name="dropdown" d="M93.867 682.667c-55.467 0-68.267-29.867-29.867-68.267l379.733-371.2c38.4-38.4 102.4-38.4 140.8 0l379.733 371.2c38.4 38.4 25.6 68.267-29.867 68.267h-840.533z" />
<glyph unicode="&#xe959;" glyph-name="edit" d="M699.733 768l145.067-145.067c12.8-12.8 29.867-12.8 42.667 0l102.4 102.4c12.8 12.8 12.8 29.867 0 42.667l-145.067 145.067c-12.8 12.8-29.867 12.8-42.667 0l-102.4-102.4c-12.8-12.8-12.8-29.867 0-42.667zM85.333 187.733l-55.467-179.2c-4.267-21.333 12.8-42.667 34.133-38.4l200.533 38.4c4.267 0 12.8 4.267 17.067 8.533l520.533 524.8c12.8 12.8 12.8 29.867 0 42.667l-145.067 145.067c-12.8 12.8-29.867 12.8-42.667 0l-520.533-529.067c-4.267-4.267-8.533-8.533-8.533-12.8z" />
<glyph unicode="&#xe95a;" glyph-name="editor" d="M853.333 644.267c0 0 0 0 0 0 0 4.267 0 8.533-4.267 12.8 0 4.267-4.267 8.533-8.533 8.533l-273.067 273.067c-4.267 4.267-12.8 8.533-21.333 8.533h-388.267c-17.067 0-29.867-12.8-29.867-29.867v-938.667c0-17.067 12.8-34.133 34.133-34.133h665.6c17.067 0 34.133 12.8 34.133 34.133v665.6c-8.533 0-8.533 0-8.533 0s0 0 0 0zM580.267 844.8l166.4-166.4h-166.4v166.4zM192 8.533v874.667h324.267v-243.2c0-17.067 12.8-34.133 34.133-34.133h243.2v-601.6h-601.6zM665.6 477.867h-349.867c-17.067 0-34.133-12.8-34.133-34.133s12.8-34.133 34.133-34.133h354.133c17.067 0 34.133 12.8 34.133 34.133s-21.333 34.133-38.4 34.133zM665.6 362.667h-349.867c-17.067 0-34.133-12.8-34.133-34.133s12.8-34.133 34.133-34.133h354.133c17.067 0 34.133 12.8 34.133 34.133s-21.333 34.133-38.4 34.133zM665.6 243.2h-349.867c-17.067 0-34.133-12.8-34.133-34.133s12.8-34.133 34.133-34.133h354.133c17.067 0 34.133 12.8 34.133 34.133s-21.333 34.133-38.4 34.133z" />
<glyph unicode="&#xe95b;" glyph-name="ellipse-h" d="M281.6 448c0-65.98-53.487-119.467-119.467-119.467s-119.467 53.487-119.467 119.467c0 65.98 53.487 119.467 119.467 119.467s119.467-53.487 119.467-119.467zM631.467 448c0-65.98-53.487-119.467-119.467-119.467s-119.467 53.487-119.467 119.467c0 65.98 53.487 119.467 119.467 119.467s119.467-53.487 119.467-119.467zM985.6 448c0-65.98-53.487-119.467-119.467-119.467s-119.467 53.487-119.467 119.467c0 65.98 53.487 119.467 119.467 119.467s119.467-53.487 119.467-119.467z" />
<glyph unicode="&#xe95c;" glyph-name="ellipse-v" d="M631.467 93.867c0-65.98-53.487-119.467-119.467-119.467s-119.467 53.487-119.467 119.467c0 65.98 53.487 119.467 119.467 119.467s119.467-53.487 119.467-119.467zM631.467 448c0-65.98-53.487-119.467-119.467-119.467s-119.467 53.487-119.467 119.467c0 65.98 53.487 119.467 119.467 119.467s119.467-53.487 119.467-119.467zM631.467 797.867c0-65.98-53.487-119.467-119.467-119.467s-119.467 53.487-119.467 119.467c0 65.98 53.487 119.467 119.467 119.467s119.467-53.487 119.467-119.467z" />
<glyph unicode="&#xe95d;" glyph-name="email" d="M904.533 832h-785.067c-59.733 0-106.667-51.2-106.667-110.933v-546.133c0-59.733 51.2-110.933 110.933-110.933h780.8c59.733 0 110.933 51.2 110.933 110.933v546.133c0 59.733-51.2 110.933-110.933 110.933zM951.467 174.933c0-25.6-21.333-46.933-46.933-46.933h-785.067c-25.6 0-46.933 21.333-46.933 46.933v546.133c0 25.6 21.333 46.933 46.933 46.933h780.8c25.6 0 46.933-21.333 46.933-46.933v-546.133zM806.4 669.867l-294.4-238.933-294.4 238.933c-12.8 8.533-34.133 8.533-42.667-4.267-12.8-17.067-8.533-34.133 4.267-46.933l311.467-256c4.267-4.267 12.8-8.533 21.333-8.533s12.8 4.267 21.333 8.533l311.467 256c12.8 12.8 17.067 29.867 4.267 46.933-8.533 12.8-29.867 12.8-42.667 4.267z" />
<glyph unicode="&#xe95e;" glyph-name="error" d="M989.867 98.133l-430.933 750.933c-25.6 42.667-68.267 42.667-93.867 0l-430.933-750.933c-25.6-42.667-4.267-81.067 46.933-81.067h866.133c51.2 0 72.533 34.133 42.667 81.067zM469.333 712.533c0 17.067 12.8 34.133 34.133 34.133s34.133-12.8 34.133-34.133v-413.867c0-17.067-12.8-34.133-34.133-34.133s-34.133 17.067-34.133 34.133v413.867zM499.2 102.4c-29.867 0-51.2 25.6-51.2 51.2 0 29.867 25.6 51.2 51.2 51.2 29.867 0 51.2-25.6 51.2-51.2 4.267-29.867-21.333-51.2-51.2-51.2z" />
<glyph unicode="&#xe95f;" glyph-name="error-404" d="M281.6 738.133c0-23.564-19.103-42.667-42.667-42.667s-42.667 19.103-42.667 42.667c0 23.564 19.103 42.667 42.667 42.667s42.667-19.103 42.667-42.667zM409.6 738.133c0-23.564-19.103-42.667-42.667-42.667s-42.667 19.103-42.667 42.667c0 23.564 19.103 42.667 42.667 42.667s42.667-19.103 42.667-42.667zM533.333 738.133c0-23.564-19.103-42.667-42.667-42.667s-42.667 19.103-42.667 42.667c0 23.564 19.103 42.667 42.667 42.667s42.667-19.103 42.667-42.667zM866.133 896h-708.267c-64 0-115.2-51.2-115.2-115.2v-665.6c0-64 51.2-115.2 115.2-115.2h708.267c64 0 115.2 51.2 115.2 115.2v665.6c0 64-51.2 115.2-115.2 115.2zM157.867 832h708.267c29.867 0 51.2-21.333 51.2-51.2v-136.533h-810.667v136.533c0 29.867 21.333 51.2 51.2 51.2zM866.133 64h-708.267c-29.867 0-51.2 21.333-51.2 51.2v469.333h814.933v-469.333c-4.267-29.867-25.6-51.2-55.467-51.2zM379.733 298.667h-17.067v145.067c0 8.533-4.267 12.8-8.533 17.067s-8.533 4.267-17.067 4.267c-4.267 0-8.533 0-12.8-4.267-4.267 0-8.533-4.267-8.533-8.533l-102.4-153.6c-4.267-4.267-4.267-8.533-4.267-17.067 0-4.267 0-8.533 4.267-12.8s8.533-4.267 12.8-4.267h93.867v-29.867c0-8.533 0-12.8 4.267-17.067s8.533-4.267 17.067-4.267c8.533 0 12.8 0 17.067 4.267s4.267 8.533 4.267 17.067v25.6h17.067c12.8 0 21.333 4.267 21.333 17.067 0 4.267 0 8.533-4.267 12.8-4.267 8.533-8.533 8.533-17.067 8.533zM320 298.667h-68.267l64 93.867v-93.867zM806.4 298.667h-17.067v145.067c0 8.533-4.267 12.8-8.533 17.067s-8.533 4.267-17.067 4.267c-4.267 0-8.533 0-12.8-4.267-4.267 0-8.533-4.267-8.533-8.533l-106.667-153.6c-4.267-4.267-4.267-8.533-4.267-17.067 0-4.267 0-8.533 4.267-12.8s8.533-4.267 12.8-4.267h93.867v-29.867c0-8.533 0-12.8 4.267-17.067s8.533-4.267 17.067-4.267 12.8 0 17.067 4.267 4.267 8.533 4.267 17.067v25.6h17.067c12.8 0 21.333 4.267 21.333 17.067 0 4.267 0 8.533-4.267 12.8 0 8.533-4.267 8.533-12.8 8.533zM742.4 298.667h-64l64 93.867v-93.867zM524.8 465.067c-29.867 0-51.2-12.8-68.267-34.133s-21.333-51.2-21.333-93.867c0-42.667 8.533-72.533 21.333-93.867 17.067-21.333 38.4-34.133 68.267-34.133s51.2 12.8 68.267 34.133c17.067 21.333 21.333 51.2 21.333 93.867s-8.533 72.533-21.333 93.867c-17.067 21.333-38.4 34.133-68.267 34.133zM558.933 268.8c-8.533-12.8-17.067-21.333-34.133-21.333s-25.6 8.533-34.133 21.333c-8.533 12.8-12.8 38.4-12.8 68.267s4.267 55.467 12.8 68.267c8.533 12.8 17.067 21.333 34.133 21.333s25.6-8.533 34.133-21.333c8.533-12.8 12.8-38.4 12.8-68.267-4.267-29.867-4.267-55.467-12.8-68.267z" />
<glyph unicode="&#xe960;" glyph-name="error-500" d="M294.4 721.067c0-21.208-17.192-38.4-38.4-38.4s-38.4 17.192-38.4 38.4c0 21.208 17.192 38.4 38.4 38.4s38.4-17.192 38.4-38.4zM413.867 721.067c0-21.208-17.192-38.4-38.4-38.4s-38.4 17.192-38.4 38.4c0 21.208 17.192 38.4 38.4 38.4s38.4-17.192 38.4-38.4zM529.067 721.067c0-21.208-17.192-38.4-38.4-38.4s-38.4 17.192-38.4 38.4c0 21.208 17.192 38.4 38.4 38.4s38.4-17.192 38.4-38.4zM844.8 870.4h-665.6c-59.733 0-106.667-46.933-106.667-106.667v-627.2c0-59.733 46.933-106.667 106.667-106.667h665.6c59.733 0 106.667 46.933 106.667 106.667v622.933c0 59.733-46.933 110.933-106.667 110.933zM179.2 810.667h665.6c25.6 0 46.933-21.333 46.933-46.933v-128h-759.467v128c0 25.6 21.333 46.933 46.933 46.933zM844.8 85.333h-665.6c-25.6 0-46.933 21.333-46.933 46.933v443.733h763.733v-439.467c-4.267-29.867-25.6-51.2-51.2-51.2zM366.933 366.933c-12.8 4.267-25.6 8.533-38.4 8.533-17.067 0-29.867-4.267-42.667-12.8v64h89.6c12.8 0 21.333 4.267 21.333 17.067s-8.533 17.067-21.333 17.067h-110.933c-4.267 0-12.8 0-12.8-4.267-4.267-4.267-4.267-8.533-4.267-12.8v-102.4c0-4.267 0-8.533 4.267-8.533 4.267-4.267 8.533-4.267 12.8-4.267s8.533 0 12.8 4.267 12.8 8.533 21.333 12.8 12.8 4.267 21.333 4.267c12.8 0 25.6-4.267 34.133-12.8s12.8-17.067 12.8-29.867c0-12.8-4.267-25.6-12.8-29.867-8.533-8.533-17.067-12.8-34.133-12.8-8.533 0-17.067 0-25.6 4.267s-17.067 8.533-25.6 12.8c-4.267 0-4.267 4.267-8.533 4.267 0 0-4.267 0-4.267 0-4.267 0-8.533 0-8.533-4.267-4.267-4.267-4.267-8.533-4.267-12.8s4.267-12.8 8.533-17.067c8.533-8.533 21.333-12.8 34.133-17.067s25.6-8.533 38.4-8.533c17.067 0 29.867 4.267 42.667 8.533 12.8 8.533 21.333 17.067 29.867 25.6 8.533 12.8 8.533 25.6 8.533 38.4s-4.267 25.6-8.533 38.4c-12.8 17.067-21.333 25.6-29.867 29.867zM512 465.067c-25.6 0-46.933-8.533-64-29.867-12.8-21.333-21.333-51.2-21.333-89.6s8.533-68.267 21.333-89.6c12.8-21.333 34.133-29.867 64-29.867s46.933 8.533 64 29.867c12.8 21.333 21.333 51.2 21.333 89.6s-8.533 68.267-21.333 89.6c-17.067 17.067-38.4 29.867-64 29.867zM546.133 281.6c-8.533-12.8-17.067-21.333-34.133-21.333s-25.6 8.533-34.133 21.333c-8.533 12.8-8.533 34.133-8.533 64s4.267 51.2 8.533 64c8.533 12.8 17.067 21.333 34.133 21.333s25.6-8.533 34.133-21.333c8.533-12.8 8.533-34.133 8.533-64s-4.267-51.2-8.533-64zM708.267 465.067c-25.6 0-46.933-8.533-64-29.867-12.8-21.333-21.333-51.2-21.333-89.6s8.533-68.267 21.333-89.6c12.8-21.333 34.133-29.867 64-29.867 25.6 0 46.933 8.533 64 29.867 12.8 21.333 21.333 51.2 21.333 89.6s-8.533 68.267-21.333 89.6c-17.067 17.067-34.133 29.867-64 29.867zM742.4 281.6c-8.533-12.8-17.067-21.333-34.133-21.333s-25.6 8.533-34.133 21.333c-8.533 12.8-8.533 34.133-8.533 64s4.267 51.2 8.533 64c8.533 12.8 17.067 21.333 34.133 21.333s25.6-8.533 34.133-21.333c8.533-12.8 8.533-34.133 8.533-64s-4.267-51.2-8.533-64z" />
<glyph unicode="&#xe961;" glyph-name="etherium" d="M904.533 435.2c-12.8 0-21.333-8.533-25.6-21.333-29.867-170.667-179.2-298.667-354.133-298.667-196.267 0-358.4 162.133-358.4 358.4s162.133 358.4 358.4 358.4c123.733 0 243.2-68.267 307.2-179.2 8.533-12.8 21.333-17.067 34.133-8.533s17.067 21.333 8.533 34.133c-72.533 123.733-204.8 200.533-349.867 200.533-221.867 0-405.333-183.467-405.333-409.6s183.467-409.6 405.333-409.6c200.533 0 366.933 145.067 401.067 349.867 0 12.8-8.533 21.333-21.333 25.6zM913.067 533.333c0-11.782-9.551-21.333-21.333-21.333s-21.333 9.551-21.333 21.333c0 11.782 9.551 21.333 21.333 21.333s21.333-9.551 21.333-21.333zM512 682.667c-4.267 0-12.8-4.267-17.067-8.533l-166.4-213.333c-4.267-8.533-4.267-17.067 0-25.6l166.4-213.333c4.267-4.267 8.533-8.533 17.067-8.533s12.8 4.267 17.067 8.533l170.667 213.333c4.267 8.533 4.267 17.067 0 25.6l-170.667 213.333c-4.267 4.267-8.533 8.533-17.067 8.533zM512 627.2l119.467-149.333-115.2-34.133-119.467 34.133 115.2 149.333zM512 268.8l-136.533 174.933 136.533-38.4h4.267c0 0 4.267 0 8.533 0l128 38.4-140.8-174.933z" />
<glyph unicode="&#xe962;" glyph-name="exclamation" d="M512-55.467c-277.333 0-499.2 226.133-499.2 503.467s221.867 499.2 499.2 499.2c277.333 0 503.467-226.133 503.467-503.467 0-273.067-226.133-499.2-503.467-499.2zM512 883.2c-243.2 0-435.2-192-435.2-435.2s196.267-439.467 439.467-439.467c243.2 0 439.467 196.267 439.467 439.467-4.267 243.2-200.533 435.2-443.733 435.2zM520.533 320c-17.067 0-34.133 12.8-34.133 34.133v379.733c0 17.067 12.8 34.133 34.133 34.133s34.133-17.067 34.133-34.133v-379.733c0-17.067-17.067-34.133-34.133-34.133zM567.467 221.867c0-25.921-21.013-46.933-46.933-46.933s-46.933 21.013-46.933 46.933c0 25.921 21.013 46.933 46.933 46.933s46.933-21.013 46.933-46.933z" />
<glyph unicode="&#xe963;" glyph-name="expand" d="M430.933 772.267l46.933 46.933v-204.8c21.333 4.267 42.667 4.267 64 0v204.8l46.933-46.933c4.267-4.267 12.8-8.533 21.333-8.533s17.067 4.267 21.333 8.533c12.8 12.8 12.8 34.133 0 46.933l-102.4 102.4c-12.8 12.8-34.133 12.8-46.933 0l-98.133-106.667c-12.8-12.8-12.8-29.867 0-42.667s34.133-12.8 46.933 0zM140.8 413.867h204.8c-4.267 21.333-4.267 42.667 0 64h-204.8l46.933 46.933c12.8 12.8 12.8 34.133 0 46.933s-29.867 17.067-42.667 4.267l-102.4-102.4c-12.8-12.8-12.8-34.133 0-46.933l102.4-106.667c4.267-4.267 12.8-8.533 21.333-8.533s17.067 4.267 21.333 8.533c12.8 12.8 12.8 34.133 0 46.933l-46.933 46.933zM593.067 123.733l-46.933-51.2v204.8c-21.333-4.267-42.667-4.267-64 0v-204.8l-46.933 51.2c-12.8 12.8-34.133 12.8-46.933 0s-12.8-34.133 0-46.933l102.4-102.4c4.267-4.267 12.8-8.533 21.333-8.533s17.067 4.267 21.333 8.533l102.4 102.4c12.8 12.8 12.8 34.133 0 46.933s-29.867 12.8-42.667 0zM985.6 469.333l-106.667 106.667c-12.8 12.8-34.133 12.8-46.933 0s-12.8-34.133 0-46.933l51.2-46.933h-204.8c4.267-21.333 4.267-42.667 0-64h204.8l-51.2-46.933c-12.8-12.8-12.8-34.133 0-46.933 4.267-4.267 12.8-8.533 21.333-8.533s17.067 4.267 21.333 8.533l102.4 102.4c4.267 4.267 8.533 12.8 8.533 21.333 8.533 8.533 4.267 17.067 0 21.333z" />
<glyph unicode="&#xe964;" glyph-name="extensions" d="M896 490.667h-42.667v170.667c0 46.933-38.4 85.333-85.333 85.333h-213.333v42.667c0 46.933-38.4 85.333-85.333 85.333s-85.333-38.4-85.333-85.333v-42.667h-256c-46.933 0-85.333-38.4-85.333-85.333v-170.667h42.667c46.933 0 85.333-38.4 85.333-85.333s-38.4-85.333-85.333-85.333h-42.667v-170.667c0-46.933 38.4-85.333 85.333-85.333h256v42.667c0 46.933 38.4 85.333 85.333 85.333s85.333-38.4 85.333-85.333v-42.667h213.333c46.933 0 85.333 38.4 85.333 85.333v170.667h42.667c46.933 0 85.333 38.4 85.333 85.333s-38.4 85.333-85.333 85.333z" />
</font>
</defs>
</svg>
